<svg xmlns="http://www.w3.org/2000/svg" xmlns:xlink="http://www.w3.org/1999/xlink" width="500" zoomAndPan="magnify" viewBox="0 0 375 374.999991" height="500" preserveAspectRatio="xMidYMid meet" version="1.0"><defs><clipPath id="0963e55585"><path d="M 127.910156 37.5 L 247.160156 37.5 L 247.160156 337.5 L 127.910156 337.5 Z M 127.910156 37.5 " clip-rule="nonzero"/></clipPath></defs><g clip-path="url(#0963e55585)"><path stroke-linecap="butt" transform="matrix(2.889698, 0, 0, -2.890133, 155.480034, 50.188355)" fill="none" stroke-linejoin="miter" d="M 0.000150348 0.00029587 C 0.000150348 0.00029587 -2.433062 -1.621602 0.000150348 -3.062388 L 0.000150348 -21.35334 L -1.712561 -21.35334 L -1.712561 -52.438361 C -1.712561 -52.438361 -5.855781 -56.311994 -1.712561 -60.457294 L -1.776095 -90.098827 C -1.776095 -90.098827 -0.359424 -92.62223 1.351935 -92.62223 C 1.351935 -92.62223 3.333651 -94.514444 21.263723 -92.62223 C 21.263723 -92.62223 24.417436 -92.081597 24.417436 -86.404955 L 24.417436 -60.546499 C 24.417436 -60.546499 27.660368 -56.491754 24.417436 -52.438361 L 24.326867 -21.083023 L 22.434368 -21.173579 L 22.345151 -3.062388 C 22.345151 -3.062388 24.05651 -1.352637 22.345151 0.00029587 Z M 0.000150348 0.00029587 " stroke="#231f20" stroke-width="6" stroke-opacity="1" stroke-miterlimit="10"/></g><path stroke-linecap="butt" transform="matrix(2.889698, 0, 0, -2.890133, 159.320502, 111.904212)" fill="none" stroke-linejoin="miter" d="M -0.0000655909 0.000646372 L 20.475416 0.000646372 " stroke="#231f20" stroke-width="6" stroke-opacity="1" stroke-miterlimit="10"/><path stroke-linecap="butt" transform="matrix(2.889698, 0, 0, -2.890133, 150.532963, 201.74108)" fill="none" stroke-linejoin="miter" d="M -0.000592662 -0.000383078 L 25.67926 -0.000383078 " stroke="#231f20" stroke-width="6" stroke-opacity="1" stroke-miterlimit="10"/><path stroke-linecap="butt" transform="matrix(2.889698, 0, 0, -2.890133, 151.31308, 238.454281)" fill="none" stroke-linejoin="miter" d="M -0.00020077 0.000400031 L 25.407943 0.000400031 " stroke="#231f20" stroke-width="6" stroke-opacity="1" stroke-miterlimit="10"/><path stroke-linecap="butt" transform="matrix(2.889698, 0, 0, -2.890133, 165.11425, 224.003656)" fill="none" stroke-linejoin="miter" d="M -0.000335401 -0.000086418 L -0.000335401 -32.30018 " stroke="#231f20" stroke-width="6" stroke-opacity="1" stroke-miterlimit="10"/><path stroke-linecap="butt" transform="matrix(2.889698, 0, 0, -2.890133, 180.473078, 224.003656)" fill="none" stroke-linejoin="miter" d="M -0.000146036 -0.000086418 L -0.000146036 -32.30018 " stroke="#231f20" stroke-width="6" stroke-opacity="1" stroke-miterlimit="10"/><path stroke-linecap="butt" transform="matrix(2.889698, 0, 0, -2.890133, 195.834719, 225.567408)" fill="none" stroke-linejoin="miter" d="M 0.000421726 0.000346468 L 0.000421726 -32.301099 " stroke="#231f20" stroke-width="6" stroke-opacity="1" stroke-miterlimit="10"/><path stroke-linecap="butt" transform="matrix(2.889698, 0, 0, -2.890133, 209.896044, 225.567408)" fill="none" stroke-linejoin="miter" d="M -0.000523607 0.000346468 L -0.000523607 -32.301099 " stroke="#231f20" stroke-width="6" stroke-opacity="1" stroke-miterlimit="10"/></svg>