<svg xmlns="http://www.w3.org/2000/svg" xmlns:xlink="http://www.w3.org/1999/xlink" width="500" zoomAndPan="magnify" viewBox="0 0 375 374.999991" height="500" preserveAspectRatio="xMidYMid meet" version="1.0"><defs><g/><clipPath id="d5aa1e352b"><path d="M 37.5 42.339844 L 337.5 42.339844 L 337.5 332.589844 L 37.5 332.589844 Z M 37.5 42.339844 " clip-rule="nonzero"/></clipPath><clipPath id="0b8e0bdd9b"><path d="M 37.5 117 L 215 117 L 215 332.589844 L 37.5 332.589844 Z M 37.5 117 " clip-rule="nonzero"/></clipPath><clipPath id="a839144f36"><path d="M 37.5 42.339844 L 337.5 42.339844 L 337.5 332.589844 L 37.5 332.589844 Z M 37.5 42.339844 " clip-rule="nonzero"/></clipPath><clipPath id="ce60cb5769"><path d="M 37.5 42.339844 L 337.5 42.339844 L 337.5 332.589844 L 37.5 332.589844 Z M 37.5 42.339844 " clip-rule="nonzero"/></clipPath></defs><g clip-path="url(#d5aa1e352b)"><path stroke-linecap="butt" transform="matrix(3.403178, 0, 0, -3.403396, 72.837069, 271.410978)" fill="none" stroke-linejoin="miter" d="M -0.000332577 0.000241502 L 69.179038 0.000241502 L 69.179038 -10.390344 L -2.279912 -10.390344 L -2.279912 61.069754 L 60.817138 61.069754 C 60.817138 61.069754 69.686376 52.708391 60.817138 42.317805 L 58.537559 40.798184 L -1.267531 40.798184 L 20.526209 40.798184 L 20.526209 0.000241502 " stroke="#231f20" stroke-width="6" stroke-opacity="1" stroke-miterlimit="10"/></g><path stroke-linecap="butt" transform="matrix(3.403178, 0, 0, -3.403396, 69.38965, 99.787904)" fill="none" stroke-linejoin="miter" d="M 0.000286631 -0.00034044 L 65.691419 -0.00034044 " stroke="#231f20" stroke-width="6" stroke-opacity="1" stroke-miterlimit="10"/><path stroke-linecap="butt" transform="matrix(3.403178, 0, 0, -3.403396, -406.231649, 1010.417622)" fill="none" stroke-linejoin="miter" d="M 195.505816 251.09444 L 186.130387 251.09444 L 186.130387 255.149442 L 195.505816 255.149442 Z M 195.505816 251.09444 " stroke="#231f20" stroke-width="6" stroke-opacity="1" stroke-miterlimit="10"/><path stroke-linecap="butt" transform="matrix(3.403178, 0, 0, -3.403396, -406.231649, 1010.417622)" fill-opacity="1" fill="#eb5e28" fill-rule="nonzero" stroke-linejoin="miter" d="M 150.780842 238.297021 L 149.007454 238.297021 L 149.007454 249.699923 L 150.780842 249.699923 Z M 150.780842 238.297021 " stroke="#231f20" stroke-width="2" stroke-opacity="1" stroke-miterlimit="10"/><g clip-path="url(#0b8e0bdd9b)"><path stroke-linecap="butt" transform="matrix(3.403178, 0, 0, -3.403396, 118.112956, 228.289965)" fill="none" stroke-linejoin="miter" d="M 0.0000955889 0.000265179 C 0.0000955889 -2.309009 -1.872006 -4.18099 -4.181428 -4.18099 C -6.489703 -4.18099 -8.361804 -2.309009 -8.361804 0.000265179 C -8.361804 2.309539 -6.489703 4.181521 -4.181428 4.181521 C -1.872006 4.181521 0.0000955889 2.309539 0.0000955889 0.000265179 Z M 0.0000955889 0.000265179 " stroke="#231f20" stroke-width="2" stroke-opacity="1" stroke-miterlimit="10"/></g><g clip-path="url(#a839144f36)"><path stroke-linecap="butt" transform="matrix(3.403178, 0, 0, -3.403396, 199.608889, 192.932037)" fill="none" stroke-linejoin="miter" d="M 0.00014281 -0.000457431 L 24.579652 -0.000457431 L 24.579652 -13.68394 C 24.579652 -13.68394 13.177166 -29.648003 0.00014281 -13.68394 Z M 0.00014281 -0.000457431 " stroke="#231f20" stroke-width="6" stroke-opacity="1" stroke-miterlimit="10"/></g><path stroke-linecap="butt" transform="matrix(3.403178, 0, 0, -3.403396, 283.258961, 205.003933)" fill="none" stroke-linejoin="miter" d="M -0.000337508 0.0000078416 L 2.848562 0.0000078416 " stroke="#231f20" stroke-width="6" stroke-opacity="1" stroke-miterlimit="10"/><g fill="#eb5e28" fill-opacity="1"><g transform="translate(311.81937, 234.671236)"><g><path d="M -22.765625 -1.53125 C -22.304688 -1.1875 -21.753906 -0.882812 -21.109375 -0.625 C -20.460938 -0.375 -19.769531 -0.164062 -19.03125 0 C -18.289062 0.175781 -17.519531 0.304688 -16.71875 0.390625 C -15.925781 0.484375 -15.15625 0.53125 -14.40625 0.53125 C -12.207031 0.53125 -10.332031 0.234375 -8.78125 -0.359375 C -7.226562 -0.960938 -5.957031 -1.835938 -4.96875 -2.984375 C -3.988281 -4.128906 -3.265625 -5.53125 -2.796875 -7.1875 C -2.328125 -8.851562 -2.09375 -10.738281 -2.09375 -12.84375 C -2.09375 -15.132812 -2.394531 -17.109375 -3 -18.765625 C -3.601562 -20.429688 -4.441406 -21.796875 -5.515625 -22.859375 C -6.597656 -23.929688 -7.878906 -24.71875 -9.359375 -25.21875 C -10.835938 -25.71875 -12.457031 -25.96875 -14.21875 -25.96875 C -15.664062 -25.96875 -17.070312 -25.882812 -18.4375 -25.71875 C -19.800781 -25.550781 -21.039062 -25.359375 -22.15625 -25.140625 L -22.15625 -18.09375 L -20.671875 -18.09375 L -19.515625 -22.5625 C -18.847656 -22.9375 -18.039062 -23.238281 -17.09375 -23.46875 C -16.15625 -23.707031 -15.175781 -23.828125 -14.15625 -23.828125 C -12.988281 -23.828125 -11.960938 -23.613281 -11.078125 -23.1875 C -10.191406 -22.769531 -9.4375 -22.109375 -8.8125 -21.203125 C -8.195312 -20.304688 -7.726562 -19.164062 -7.40625 -17.78125 C -7.09375 -16.40625 -6.9375 -14.757812 -6.9375 -12.84375 C -6.9375 -11.226562 -7.070312 -9.769531 -7.34375 -8.46875 C -7.613281 -7.164062 -8.085938 -6.054688 -8.765625 -5.140625 C -9.453125 -4.222656 -10.375 -3.515625 -11.53125 -3.015625 C -12.6875 -2.515625 -14.15625 -2.265625 -15.9375 -2.265625 C -16.539062 -2.265625 -17.160156 -2.285156 -17.796875 -2.328125 C -18.441406 -2.367188 -19.0625 -2.429688 -19.65625 -2.515625 C -20.257812 -2.597656 -20.828125 -2.691406 -21.359375 -2.796875 C -21.890625 -2.898438 -22.359375 -3.019531 -22.765625 -3.15625 Z M -22.765625 -1.53125 "/></g></g></g><g clip-path="url(#ce60cb5769)"><path stroke-linecap="butt" transform="matrix(3.403178, 0, 0, -3.403396, 289.599038, 230.04268)" fill="none" stroke-linejoin="miter" d="M -0.000406101 -0.0000848141 C 0.404776 -0.177986 0.939662 -0.389172 1.750026 -0.389172 C 3.305328 -0.389172 4.471517 0.728737 4.471517 2.544478 C 4.471517 4.180023 3.500458 5.509118 1.70067 5.509118 C 0.923592 5.509118 0.388706 5.330069 0.0489503 5.136099 L -0.274736 6.236792 C 0.114376 6.431909 0.859314 6.643096 1.70067 6.643096 C 4.261466 6.643096 5.913185 4.892776 5.913185 2.479056 C 5.913185 0.0814055 4.373952 -1.522002 2.009434 -1.522002 C 0.955732 -1.522002 0.130446 -1.26261 -0.242597 -1.067493 Z M -0.000406101 -0.0000848141 " stroke="#231f20" stroke-width="6" stroke-opacity="1" stroke-miterlimit="10"/></g></svg>