<svg xmlns="http://www.w3.org/2000/svg" xmlns:xlink="http://www.w3.org/1999/xlink" width="500" zoomAndPan="magnify" viewBox="0 0 375 374.999991" height="500" preserveAspectRatio="xMidYMid meet" version="1.0"><defs><clipPath id="6e5696e338"><path d="M 78.410156 37.5 L 296.660156 37.5 L 296.660156 337.5 L 78.410156 337.5 Z M 78.410156 37.5 " clip-rule="nonzero"/></clipPath></defs><g clip-path="url(#6e5696e338)"><path stroke-linecap="butt" transform="matrix(3.197295, 0, 0, -3.196958, 97.090311, 54.769216)" fill="none" stroke-linejoin="miter" d="M -0.000146115 -0.0000987334 L 9.122554 -16.977909 C 9.122554 -16.977909 6.081654 -17.484983 7.602715 -20.01913 C 7.602715 -20.01913 18.245255 -35.47694 9.122554 -43.839383 C 9.122554 -43.839383 6.949086 -46.37353 9.882474 -49.920603 L -0.000146115 -72.219634 C -0.000146115 -72.219634 -1.84741 -77.795003 2.280834 -82.863298 C 2.280834 -82.863298 27.367955 -93.251591 53.214995 -81.84915 C 53.214995 -81.84915 56.510016 -75.767929 54.988955 -70.192561 L 45.106335 -48.906455 C 45.106335 -48.906455 47.410529 -48.589993 46.258432 -42.54054 C 46.258432 -42.54054 40.567587 -34.462793 46.258432 -22.553277 C 46.258432 -22.553277 48.42457 -19.766204 46.258432 -17.737909 L 55.389685 -0.0000987334 Z M -0.000146115 -0.0000987334 " stroke="#231f20" stroke-width="6" stroke-opacity="1" stroke-miterlimit="10"/><path stroke-linecap="butt" transform="matrix(3.197295, 0, 0, -3.196958, 122.27859, 110.668001)" fill="none" stroke-linejoin="miter" d="M -0.000389805 0.0000100041 L 38.380437 -0.252916 " stroke="#231f20" stroke-width="6" stroke-opacity="1" stroke-miterlimit="10"/></g><path stroke-linecap="butt" transform="matrix(3.197295, 0, 0, -3.196958, 137.465739, 158.615966)" fill="none" stroke-linejoin="miter" d="M -0.0002799 -0.000382212 L 31.108776 -0.000382212 " stroke="#231f20" stroke-width="6" stroke-opacity="1" stroke-miterlimit="10"/><path stroke-linecap="butt" transform="matrix(3.197295, 0, 0, -3.196958, 125.661325, 209.821628)" fill="none" stroke-linejoin="miter" d="M -0.000365558 0.000411429 L 38.4501 0.000411429 " stroke="#231f20" stroke-width="6" stroke-opacity="1" stroke-miterlimit="10"/><path fill="#eb5e28" d="M 97.089844 285.652344 L 105.128906 285.492188 L 273.566406 282.128906 L 270.230469 309.5625 L 199.351562 332.980469 L 129.867188 327.320312 L 101.953125 307.554688 " fill-opacity="1" fill-rule="nonzero"/><path stroke-linecap="butt" transform="matrix(3.197295, 0, 0, -3.196958, 101.358631, 276.030685)" fill="none" stroke-linejoin="miter" d="M 0.000232558 -0.000176707 L 52.417581 -0.000176707 " stroke="#231f20" stroke-width="7" stroke-opacity="1" stroke-miterlimit="10"/></svg>