<svg xmlns="http://www.w3.org/2000/svg" xmlns:xlink="http://www.w3.org/1999/xlink" width="500" zoomAndPan="magnify" viewBox="0 0 375 374.999991" height="500" preserveAspectRatio="xMidYMid meet" version="1.0"><defs><clipPath id="15909daa01"><path d="M 89.351562 37.5 L 285.851562 37.5 L 285.851562 337.5 L 89.351562 337.5 Z M 89.351562 37.5 " clip-rule="nonzero"/></clipPath></defs><g clip-path="url(#15909daa01)"><path stroke-linecap="butt" transform="matrix(2.60416, 0, 0, -2.605104, 110.569656, 130.867727)" fill="none" stroke-linejoin="miter" d="M 0.000252235 0.000206942 L 8.040272 -73.792724 L 50.139378 -73.792724 L 57.550896 0.000206942 Z M 0.000252235 0.000206942 " stroke="#231f20" stroke-width="6" stroke-opacity="1" stroke-miterlimit="10"/></g><path fill="#eb5e28" d="M 135.617188 197 L 144.652344 303.796875 L 225.132812 303.796875 L 234.164062 192.070312 C 234.164062 192.070312 208.296875 178.105469 185.507812 196.179688 C 162.71875 214.25 135.617188 197 135.617188 197 " fill-opacity="1" fill-rule="nonzero"/><path fill="#eb5e28" d="M 180.773438 207.996094 L 180.773438 151.308594 C 180.773438 151.308594 187.898438 142.589844 187.898438 151.308594 L 187.898438 207.996094 Z M 180.773438 207.996094 " fill-opacity="1" fill-rule="nonzero"/><path fill="#eb5e28" d="M 180.773438 102.527344 L 180.773438 77.878906 L 234.164062 40.914062 C 234.164062 40.914062 240.9375 38.859375 239.09375 47.074219 L 191.253906 81.167969 L 191.050781 102.527344 Z M 180.773438 102.527344 " fill-opacity="1" fill-rule="nonzero"/><path fill="#eb5e28" d="M 115.90625 118.546875 C 115.90625 118.546875 109.75 113.414062 115.90625 109.921875 L 256.132812 109.921875 C 256.132812 109.921875 262.289062 113.824219 256.132812 118.546875 Z M 115.90625 118.546875 " fill-opacity="1" fill-rule="nonzero"/></svg>