<svg xmlns="http://www.w3.org/2000/svg" xmlns:xlink="http://www.w3.org/1999/xlink" width="500" zoomAndPan="magnify" viewBox="0 0 375 374.999991" height="500" preserveAspectRatio="xMidYMid meet" version="1.0"><defs><g/><clipPath id="e9e73b7201"><path d="M 68.246094 68.246094 L 306.746094 68.246094 L 306.746094 306.746094 L 68.246094 306.746094 Z M 68.246094 68.246094 " clip-rule="nonzero"/></clipPath><clipPath id="0a8122c5f3"><path d="M 68.246094 68.246094 L 306.566406 68.246094 L 306.566406 306.566406 L 68.246094 306.566406 Z M 68.246094 68.246094 " clip-rule="nonzero"/></clipPath><clipPath id="3ce231cad4"><path d="M 80.957031 80.957031 L 293.957031 80.957031 L 293.957031 293.957031 L 80.957031 293.957031 Z M 80.957031 80.957031 " clip-rule="nonzero"/></clipPath><clipPath id="7c32369702"><path d="M 115.023438 115.023438 L 259.859375 115.023438 L 259.859375 259.859375 L 115.023438 259.859375 Z M 115.023438 115.023438 " clip-rule="nonzero"/></clipPath><clipPath id="1731b9545a"><path d="M 273.382812 182.382812 L 283.882812 182.382812 L 283.882812 192.882812 L 273.382812 192.882812 Z M 273.382812 182.382812 " clip-rule="nonzero"/></clipPath><clipPath id="4d8493d2b3"><path d="M 91.378906 182.382812 L 101.878906 182.382812 L 101.878906 192.882812 L 91.378906 192.882812 Z M 91.378906 182.382812 " clip-rule="nonzero"/></clipPath><clipPath id="3847b9e25f"><path d="M 123.460938 147 L 251.710938 147 L 251.710938 251.550781 L 123.460938 251.550781 Z M 123.460938 147 " clip-rule="nonzero"/></clipPath><clipPath id="53638441d7"><path d="M 131 123.300781 L 244 123.300781 L 244 215 L 131 215 Z M 131 123.300781 " clip-rule="nonzero"/></clipPath></defs><g clip-path="url(#e9e73b7201)"><path fill="#ffffff" d="M 187.496094 68.246094 C 121.632812 68.246094 68.246094 121.632812 68.246094 187.496094 C 68.246094 253.355469 121.632812 306.746094 187.496094 306.746094 C 253.355469 306.746094 306.746094 253.355469 306.746094 187.496094 C 306.746094 121.632812 253.355469 68.246094 187.496094 68.246094 " fill-opacity="1" fill-rule="nonzero"/></g><g clip-path="url(#0a8122c5f3)"><path fill="#eb5e28" d="M 187.40625 306.566406 C 155.589844 306.566406 125.632812 294.183594 103.152344 271.65625 C 80.628906 249.175781 68.246094 219.21875 68.246094 187.40625 C 68.246094 155.589844 80.628906 125.632812 103.152344 103.152344 C 125.632812 80.628906 155.589844 68.246094 187.40625 68.246094 C 219.21875 68.246094 249.175781 80.628906 271.65625 103.152344 C 294.183594 125.679688 306.566406 155.589844 306.566406 187.40625 C 306.566406 219.21875 294.183594 249.175781 271.65625 271.65625 C 249.175781 294.183594 219.21875 306.566406 187.40625 306.566406 Z M 187.40625 75.386719 C 157.496094 75.386719 129.347656 87.054688 108.203125 108.203125 C 87.054688 129.347656 75.386719 157.496094 75.386719 187.40625 C 75.386719 217.3125 87.054688 245.460938 108.203125 266.605469 C 129.347656 287.753906 157.496094 299.421875 187.40625 299.421875 C 217.3125 299.421875 245.460938 287.753906 266.605469 266.605469 C 287.753906 245.460938 299.421875 217.3125 299.421875 187.40625 C 299.421875 157.496094 287.753906 129.347656 266.605469 108.203125 C 245.460938 87.054688 217.3125 75.386719 187.40625 75.386719 Z M 187.40625 75.386719 " fill-opacity="1" fill-rule="nonzero"/></g><g clip-path="url(#3ce231cad4)"><path fill="#403d39" d="M 187.457031 80.957031 C 128.636719 80.957031 80.957031 128.636719 80.957031 187.457031 C 80.957031 246.273438 128.636719 293.957031 187.457031 293.957031 C 246.273438 293.957031 293.957031 246.273438 293.957031 187.457031 C 293.957031 128.636719 246.273438 80.957031 187.457031 80.957031 " fill-opacity="1" fill-rule="nonzero"/></g><g clip-path="url(#7c32369702)"><path fill="#f8f4e3" d="M 187.441406 259.859375 C 168.109375 259.859375 149.902344 252.332031 136.242188 238.644531 C 122.550781 224.980469 115.023438 206.777344 115.023438 187.441406 C 115.023438 168.109375 122.550781 149.902344 136.242188 136.242188 C 149.902344 122.550781 168.109375 115.023438 187.441406 115.023438 C 206.777344 115.023438 224.980469 122.550781 238.644531 136.242188 C 252.332031 149.929688 259.859375 168.109375 259.859375 187.441406 C 259.859375 206.777344 252.332031 224.980469 238.644531 238.644531 C 224.980469 252.332031 206.777344 259.859375 187.441406 259.859375 Z M 187.441406 119.367188 C 169.265625 119.367188 152.160156 126.457031 139.308594 139.308594 C 126.457031 152.160156 119.367188 169.265625 119.367188 187.441406 C 119.367188 205.617188 126.457031 222.722656 139.308594 235.574219 C 152.160156 248.425781 169.265625 255.515625 187.441406 255.515625 C 205.617188 255.515625 222.722656 248.425781 235.574219 235.574219 C 248.425781 222.722656 255.515625 205.617188 255.515625 187.441406 C 255.515625 169.265625 248.425781 152.160156 235.574219 139.308594 C 222.722656 126.457031 205.617188 119.367188 187.441406 119.367188 Z M 187.441406 119.367188 " fill-opacity="1" fill-rule="nonzero"/></g><g clip-path="url(#1731b9545a)"><path fill="#f8f4e3" d="M 278.632812 182.382812 C 275.734375 182.382812 273.382812 184.730469 273.382812 187.632812 C 273.382812 190.53125 275.734375 192.882812 278.632812 192.882812 C 281.535156 192.882812 283.882812 190.53125 283.882812 187.632812 C 283.882812 184.730469 281.535156 182.382812 278.632812 182.382812 " fill-opacity="1" fill-rule="nonzero"/></g><g clip-path="url(#4d8493d2b3)"><path fill="#f8f4e3" d="M 96.628906 182.382812 C 93.726562 182.382812 91.378906 184.730469 91.378906 187.632812 C 91.378906 190.53125 93.726562 192.882812 96.628906 192.882812 C 99.527344 192.882812 101.878906 190.53125 101.878906 187.632812 C 101.878906 184.730469 99.527344 182.382812 96.628906 182.382812 " fill-opacity="1" fill-rule="nonzero"/></g><path fill="#eb5e28" d="M 186.105469 220.101562 C 185.632812 220.035156 185.113281 219.957031 184.542969 219.875 C 183.964844 219.800781 183.378906 219.605469 182.71875 219.453125 C 182.058594 219.308594 181.390625 219.050781 180.675781 218.792969 C 179.945312 218.554688 179.230469 218.195312 178.46875 217.832031 C 177.691406 217.496094 176.976562 216.992188 176.179688 216.539062 C 175.78125 216.308594 175.425781 216.015625 175.039062 215.746094 C 174.664062 215.460938 174.253906 215.199219 173.894531 214.878906 C 172.382812 213.660156 170.953125 212.203125 169.59375 210.613281 C 168.9375 209.8125 168.277344 208.980469 167.671875 208.117188 C 167.035156 207.261719 166.46875 206.367188 165.890625 205.464844 C 164.753906 203.664062 163.726562 201.792969 162.71875 199.941406 C 161.761719 198.097656 160.800781 196.257812 159.859375 194.445312 C 159.390625 193.558594 158.925781 192.683594 158.464844 191.816406 C 158.011719 190.945312 157.515625 190.136719 157.066406 189.300781 C 156.109375 187.695312 155.167969 186.15625 154.171875 184.78125 C 153.691406 184.078125 153.164062 183.445312 152.683594 182.800781 C 152.160156 182.203125 151.683594 181.578125 151.164062 181.046875 C 150.652344 180.511719 150.175781 179.960938 149.664062 179.507812 C 149.160156 179.042969 148.699219 178.566406 148.214844 178.1875 C 147.738281 177.796875 147.292969 177.40625 146.871094 177.074219 C 146.4375 176.753906 146.035156 176.457031 145.675781 176.191406 C 145.292969 175.898438 144.9375 175.660156 144.621094 175.453125 C 144.53125 175.539062 144.4375 175.617188 144.347656 175.703125 C 136.3125 183.722656 139.542969 199.945312 151.570312 211.941406 C 163.046875 223.390625 178.375 226.84375 186.738281 220.171875 C 186.539062 220.15625 186.324219 220.140625 186.105469 220.101562 " fill-opacity="1" fill-rule="nonzero"/><path fill="#eb5e28" d="M 195.789062 200.878906 C 196.59375 200.226562 197.425781 199.5625 198.292969 198.964844 C 199.152344 198.328125 200.046875 197.761719 200.949219 197.1875 C 202.757812 196.050781 204.632812 195.027344 206.488281 194.019531 C 208.335938 193.0625 210.183594 192.109375 212 191.167969 C 212.886719 190.699219 213.765625 190.234375 214.636719 189.777344 C 215.507812 189.324219 216.320312 188.832031 217.152344 188.382812 C 218.765625 187.425781 220.308594 186.488281 221.6875 185.496094 C 222.394531 185.015625 223.023438 184.488281 223.671875 184.007812 C 224.269531 183.488281 224.898438 183.015625 225.429688 182.496094 C 225.96875 181.984375 226.519531 181.507812 226.972656 180.996094 C 227.4375 180.496094 227.914062 180.035156 228.296875 179.550781 C 228.6875 179.078125 229.078125 178.632812 229.414062 178.210938 C 229.734375 177.777344 230.03125 177.378906 230.296875 177.019531 C 230.589844 176.640625 230.832031 176.28125 231.039062 175.964844 C 230.953125 175.878906 230.875 175.785156 230.789062 175.699219 C 222.75 167.679688 206.484375 170.902344 194.457031 182.902344 C 192.601562 184.75 190.980469 186.707031 189.554688 188.714844 C 192.277344 192.941406 194.109375 197.332031 195 201.578125 C 195.257812 201.34375 195.519531 201.109375 195.789062 200.878906 " fill-opacity="1" fill-rule="nonzero"/><path fill="#eb5e28" d="M 231.589844 176.574219 C 231.535156 176.855469 231.46875 177.152344 231.359375 177.484375 C 231.226562 177.941406 231.066406 178.445312 230.886719 179.003906 C 230.699219 179.550781 230.4375 180.109375 230.179688 180.734375 C 229.636719 181.953125 228.90625 183.292969 227.960938 184.667969 C 227.742188 185.023438 227.480469 185.359375 227.210938 185.695312 C 226.941406 186.039062 226.671875 186.386719 226.394531 186.742188 C 226.109375 187.09375 225.792969 187.417969 225.480469 187.765625 C 225.164062 188.105469 224.851562 188.464844 224.507812 188.789062 C 223.15625 190.144531 221.613281 191.421875 219.964844 192.652344 C 219.132812 193.246094 218.28125 193.855469 217.398438 194.40625 C 216.527344 194.984375 215.628906 195.527344 214.71875 196.0625 C 212.90625 197.128906 211.042969 198.125 209.210938 199.113281 C 207.367188 200.078125 205.5625 201.050781 203.8125 202.003906 C 202.960938 202.503906 202.089844 202.972656 201.273438 203.472656 C 200.4375 203.953125 199.667969 204.484375 198.875 204.972656 C 197.730469 205.757812 196.628906 206.546875 195.621094 207.363281 C 195.625 212.8125 193.878906 217.746094 190.230469 221.40625 C 198.863281 226.320312 212.882812 222.589844 223.566406 211.9375 C 235.167969 200.363281 238.585938 184.851562 231.589844 176.574219 " fill-opacity="1" fill-rule="nonzero"/><path fill="#eb5e28" d="M 145.230469 174.902344 C 145.511719 174.957031 145.808594 175.023438 146.140625 175.132812 C 146.597656 175.265625 147.105469 175.425781 147.664062 175.605469 C 148.214844 175.789062 148.773438 176.054688 149.398438 176.308594 C 150.621094 176.847656 151.964844 177.582031 153.339844 178.519531 C 153.699219 178.742188 154.035156 179.003906 154.375 179.269531 C 154.71875 179.539062 155.066406 179.808594 155.421875 180.085938 C 155.773438 180.371094 156.097656 180.6875 156.445312 180.996094 C 156.789062 181.3125 157.148438 181.621094 157.472656 181.96875 C 158.832031 183.3125 160.117188 184.851562 161.347656 186.5 C 161.941406 187.328125 162.550781 188.179688 163.105469 189.058594 C 163.683594 189.929688 164.230469 190.824219 164.761719 191.730469 C 165.835938 193.539062 166.832031 195.398438 167.824219 197.226562 C 168.789062 199.066406 169.769531 200.863281 170.722656 202.609375 C 171.222656 203.460938 171.695312 204.328125 172.191406 205.140625 C 172.675781 205.980469 173.210938 206.746094 173.695312 207.535156 C 174.738281 209.046875 175.785156 210.480469 176.898438 211.726562 C 177.445312 212.359375 178.019531 212.929688 178.574219 213.492188 C 179.160156 214.015625 179.695312 214.578125 180.285156 215.019531 C 180.855469 215.488281 181.40625 215.945312 181.976562 216.316406 C 182.53125 216.71875 183.066406 217.097656 183.601562 217.402344 C 184.132812 217.714844 184.621094 218.046875 185.105469 218.289062 C 185.585938 218.546875 186.03125 218.777344 186.433594 218.988281 C 186.828125 219.195312 187.1875 219.367188 187.507812 219.511719 C 187.636719 219.390625 187.773438 219.273438 187.898438 219.148438 C 195.9375 211.128906 192.703125 194.902344 180.679688 182.90625 C 169.074219 171.332031 153.527344 167.925781 145.230469 174.902344 " fill-opacity="1" fill-rule="nonzero"/><g clip-path="url(#3847b9e25f)"><path fill="#eb5e28" d="M 237.042969 147.359375 C 243.230469 156.695312 246.832031 167.878906 246.832031 179.90625 C 246.832031 212.558594 220.296875 239.027344 187.566406 239.027344 C 154.835938 239.027344 128.300781 212.558594 128.300781 179.90625 C 128.300781 167.878906 131.90625 156.695312 138.089844 147.363281 C 129.050781 158.363281 123.625 172.429688 123.625 187.761719 C 123.625 222.988281 152.253906 251.546875 187.566406 251.546875 C 222.882812 251.546875 251.507812 222.988281 251.507812 187.761719 C 251.507812 172.429688 246.082031 158.359375 237.042969 147.359375 " fill-opacity="1" fill-rule="nonzero"/></g><g clip-path="url(#53638441d7)"><path fill="#ccc5b9" d="M 230.945312 214.640625 C 236.367188 206.457031 239.523438 196.652344 239.523438 186.109375 C 239.523438 157.484375 216.261719 134.28125 187.566406 134.28125 C 158.871094 134.28125 135.609375 157.484375 135.609375 186.109375 C 135.609375 196.652344 138.769531 206.457031 144.1875 214.640625 C 136.265625 204.996094 131.511719 192.664062 131.511719 179.222656 C 131.511719 148.335938 156.609375 123.300781 187.566406 123.300781 C 218.527344 123.300781 243.625 148.335938 243.625 179.222656 C 243.625 192.664062 238.867188 204.996094 230.945312 214.640625 " fill-opacity="1" fill-rule="nonzero"/></g><g fill="#f8f4e3" fill-opacity="1"><g transform="translate(138.037384, 120.059836)"><g><path d="M 1.75 -1.078125 L -6.21875 -14.015625 L -2.515625 -16.296875 C -0.972656 -17.242188 0.613281 -17.773438 2.25 -17.890625 C 3.113281 -17.953125 3.953125 -17.882812 4.765625 -17.6875 C 5.578125 -17.488281 6.378906 -17.085938 7.171875 -16.484375 C 7.960938 -15.878906 8.65625 -15.097656 9.25 -14.140625 C 10.101562 -12.753906 10.472656 -11.375 10.359375 -10 C 10.171875 -7.46875 8.660156 -5.332031 5.828125 -3.59375 Z M 5.03125 -4.015625 C 6.6875 -5.035156 7.710938 -6.34375 8.109375 -7.9375 C 8.515625 -9.53125 8.132812 -11.273438 6.96875 -13.171875 C 6.070312 -14.628906 4.90625 -15.628906 3.46875 -16.171875 C 2.03125 -16.722656 0.582031 -16.773438 -0.875 -16.328125 C -2.007812 -15.628906 -2.921875 -14.882812 -3.609375 -14.09375 L 3.15625 -3.109375 C 3.644531 -3.242188 4.269531 -3.546875 5.03125 -4.015625 Z M 5.03125 -4.015625 "/></g></g></g><g fill="#f8f4e3" fill-opacity="1"><g transform="translate(155.055537, 110.457877)"><g><path d="M -1.609375 -15.6875 L 3.90625 -1.515625 L 1.921875 -0.75 L -3.59375 -14.921875 Z M -1.609375 -15.6875 "/></g></g></g><g fill="#f8f4e3" fill-opacity="1"><g transform="translate(164.027303, 106.895775)"><g><path d="M 0.234375 -0.046875 L 3.78125 -16.671875 L 4.109375 -16.75 L 13.9375 -2.84375 L 11.484375 -2.34375 L 8.953125 -6.0625 L 2.28125 -4.703125 L 1.4375 -0.296875 Z M 2.4375 -5.609375 L 8.4375 -6.828125 L 3.953125 -13.515625 Z M 2.4375 -5.609375 "/></g></g></g><g fill="#f8f4e3" fill-opacity="1"><g transform="translate(181.38256, 103.836162)"><g><path d="M 2.0625 0 L 2.015625 -15.203125 L 4.265625 -15.21875 L 4.3125 -1.25 C 5.25 -0.976562 6 -0.84375 6.5625 -0.84375 L 10.71875 -1.5625 L 10.453125 -0.03125 Z M 2.0625 0 "/></g></g></g><g fill="#f8f4e3" fill-opacity="1"><g transform="translate(196.059821, 104.237793)"><g><path d="M 6.390625 -14.40625 L 4.140625 0.625 L 2.046875 0.296875 L 4.296875 -14.734375 Z M 6.390625 -14.40625 "/></g></g></g><g fill="#f8f4e3" fill-opacity="1"><g transform="translate(205.583938, 105.53721)"><g><path d="M 12.828125 4.59375 L 12.46875 4.46875 L 6.9375 -10.671875 L 6.859375 -10.703125 L 2.921875 0.984375 L 1.953125 0.65625 L 6.8125 -13.75 L 8.421875 -13.203125 L 13.1875 0.0625 L 13.28125 0.09375 L 16.8125 -10.375 L 17.765625 -10.046875 Z M 12.828125 4.59375 "/></g></g></g><g fill="#f8f4e3" fill-opacity="1"><g transform="translate(223.155491, 111.829807)"><g><path d="M 13.375 0.609375 L 15.28125 1.78125 L 12.09375 6.921875 C 10.695312 6.660156 9.21875 6.046875 7.65625 5.078125 C 5.726562 3.878906 4.394531 2.347656 3.65625 0.484375 C 3.28125 -0.441406 3.148438 -1.441406 3.265625 -2.515625 C 3.378906 -3.597656 3.742188 -4.640625 4.359375 -5.640625 C 4.984375 -6.640625 5.703125 -7.441406 6.515625 -8.046875 C 7.328125 -8.648438 8.144531 -9.0625 8.96875 -9.28125 C 9.800781 -9.507812 10.671875 -9.609375 11.578125 -9.578125 C 13.242188 -9.515625 14.820312 -9.023438 16.3125 -8.109375 C 16.882812 -7.742188 17.457031 -7.285156 18.03125 -6.734375 C 18.613281 -6.191406 19.039062 -5.75 19.3125 -5.40625 L 18.3125 -4.21875 C 17.007812 -6.050781 15.773438 -7.328125 14.609375 -8.046875 C 13.097656 -8.515625 11.628906 -8.457031 10.203125 -7.875 C 8.785156 -7.300781 7.601562 -6.25 6.65625 -4.71875 C 5.476562 -2.832031 5.066406 -1.0625 5.421875 0.59375 C 5.785156 2.25 6.789062 3.585938 8.4375 4.609375 C 9.082031 5.015625 9.710938 5.316406 10.328125 5.515625 Z M 13.375 0.609375 "/></g></g></g><g fill="#ffffff" fill-opacity="1"><g transform="translate(178.097878, 282.59005)"><g><path d="M 2.90625 -10.59375 L 2.90625 0 L 1.4375 0 L 1.4375 -10.59375 Z M 2.90625 -10.59375 "/></g></g></g><g fill="#ffffff" fill-opacity="1"><g transform="translate(185.968824, 282.59005)"><g><path d="M 9.484375 0.171875 L 9.21875 0.171875 L 2.203125 -8.59375 L 2.140625 -8.59375 L 2.140625 0 L 1.4375 0 L 1.4375 -10.59375 L 2.625 -10.59375 L 8.71875 -2.890625 L 8.78125 -2.890625 L 8.78125 -10.59375 L 9.484375 -10.59375 Z M 9.484375 0.171875 "/></g></g></g></svg>