<svg xmlns="http://www.w3.org/2000/svg" xmlns:xlink="http://www.w3.org/1999/xlink" width="500" zoomAndPan="magnify" viewBox="0 0 375 374.999991" height="500" preserveAspectRatio="xMidYMid meet" version="1.0"><defs><clipPath id="be49ecf721"><path d="M 64.964844 37.5 L 310.214844 37.5 L 310.214844 337.5 L 64.964844 337.5 Z M 64.964844 37.5 " clip-rule="nonzero"/></clipPath><clipPath id="dd41237491"><path d="M 64.964844 37.5 L 310.214844 37.5 L 310.214844 337.5 L 64.964844 337.5 Z M 64.964844 37.5 " clip-rule="nonzero"/></clipPath><clipPath id="271738c755"><path d="M 139 37.5 L 168 37.5 L 168 65 L 139 65 Z M 139 37.5 " clip-rule="nonzero"/></clipPath><clipPath id="26fb8fa351"><path d="M 64.964844 37.5 L 310.214844 37.5 L 310.214844 337.5 L 64.964844 337.5 Z M 64.964844 37.5 " clip-rule="nonzero"/></clipPath></defs><g clip-path="url(#be49ecf721)"><path stroke-linecap="butt" transform="matrix(3.275727, 0, 0, -3.275556, 88.543974, 118.436243)" fill="none" stroke-linejoin="miter" d="M -0.000306844 -0.000383623 L -0.000306844 -53.923725 C -0.000306844 -53.923725 -0.658558 -60.918006 1.621471 -61.982949 L 34.462464 -61.982949 C 34.462464 -61.982949 36.742493 -61.831496 37.958826 -57.574108 L 39.784518 -0.000383623 L 39.784518 8.413027 L 41.304934 10.389075 L 41.304934 12.517769 L 39.023713 13.277421 C 39.023713 13.277421 19.33462 32.131569 -0.0885506 13.277421 L -0.962641 11.148727 L 0.860666 9.021225 C 0.860666 9.021225 -1.723445 9.021225 -4.307557 6.588432 L -4.307557 4.458545 L -0.354474 3.395987 Z M -0.000306844 -0.000383623 " stroke="#231f20" stroke-width="6" stroke-opacity="1" stroke-miterlimit="10"/></g><path stroke-linecap="butt" transform="matrix(3.275727, 0, 0, -3.275556, 91.367636, 88.887417)" fill="none" stroke-linejoin="miter" d="M -0.000136947 0.000213037 L 39.391168 0.000213037 " stroke="#231f20" stroke-width="6" stroke-opacity="1" stroke-miterlimit="10"/><path stroke-linecap="butt" transform="matrix(3.275727, 0, 0, -3.275556, 88.209901, 115.248976)" fill="none" stroke-linejoin="miter" d="M 0.000316385 -0.000312487 L 39.278336 -0.000312487 " stroke="#231f20" stroke-width="6" stroke-opacity="1" stroke-miterlimit="10"/><path stroke-linecap="butt" transform="matrix(3.275727, 0, 0, -3.275556, 88.209901, 140.182491)" fill="none" stroke-linejoin="miter" d="M 0.000316385 -0.000336723 L 39.278336 -0.000336723 " stroke="#231f20" stroke-width="6" stroke-opacity="1" stroke-miterlimit="10"/><g clip-path="url(#dd41237491)"><path stroke-linecap="butt" transform="matrix(3.275727, 0, 0, -3.275556, 90.086893, 73.213824)" fill="none" stroke-linejoin="miter" d="M -0.000291686 -0.000311324 L 38.552698 -0.527417 " stroke="#231f20" stroke-width="6" stroke-opacity="1" stroke-miterlimit="10"/></g><path fill="#eb5e28" d="M 88.210938 221.363281 L 215.605469 221.363281 L 213.082031 301.023438 L 211.644531 310.699219 L 204.585938 320.234375 L 188.320312 321.46875 L 93.320312 321.160156 L 89.273438 313.617188 L 88.210938 300.050781 L 88.542969 260.539062 L 89.871094 222.027344 " fill-opacity="1" fill-rule="nonzero"/><g clip-path="url(#271738c755)"><path fill="#eb5e28" d="M 167.898438 50.804688 C 167.898438 58.597656 161.578125 64.917969 153.785156 64.917969 C 145.992188 64.917969 139.675781 58.597656 139.675781 50.804688 C 139.675781 43.011719 145.992188 36.695312 153.785156 36.695312 C 161.578125 36.695312 167.898438 43.011719 167.898438 50.804688 " fill-opacity="1" fill-rule="nonzero"/></g><g clip-path="url(#26fb8fa351)"><path stroke-linecap="butt" transform="matrix(3.275727, 0, 0, -3.275556, 218.744345, 122.402805)" fill="none" stroke-linejoin="miter" d="M 0.000533993 0.000140743 C 0.000533993 0.000140743 12.124513 3.16158 17.826969 -5.42952 C 17.792387 -5.55593 30.834578 -28.752137 15.851024 -45.03635 C 15.851024 -45.03635 8.916733 -50.661588 -0.958223 -48.38144 L -0.958223 -42.299457 C -0.958223 -42.299457 10.301206 -46.480523 15.0139 -36.978318 C 15.0139 -36.978318 20.412273 -29.14687 15.166538 -10.598013 C 15.166538 -10.598013 12.758914 -3.402192 0.2915 -4.567309 " stroke="#231f20" stroke-width="6" stroke-opacity="1" stroke-miterlimit="10"/></g></svg>