<?xml version="1.0" encoding="UTF-8" standalone="no"?>
<!-- Created with Inkscape (http://www.inkscape.org/) -->

<svg
   version="1.1"
   id="svg2"
   xml:space="preserve"
   width="816"
   height="1056"
   viewBox="0 0 816 1056"
   sodipodi:docname="jacobicons[1].ai"
   xmlns:inkscape="http://www.inkscape.org/namespaces/inkscape"
   xmlns:sodipodi="http://sodipodi.sourceforge.net/DTD/sodipodi-0.dtd"
   xmlns="http://www.w3.org/2000/svg"
   xmlns:svg="http://www.w3.org/2000/svg"><defs
     id="defs6"><clipPath
       clipPathUnits="userSpaceOnUse"
       id="clipPath16"><path
         d="M 0,792 H 612 V 0 H 0 Z"
         id="path14" /></clipPath><clipPath
       clipPathUnits="userSpaceOnUse"
       id="clipPath36"><path
         d="M 0,792 H 612 V 0 H 0 Z"
         id="path34" /></clipPath><clipPath
       clipPathUnits="userSpaceOnUse"
       id="clipPath272"><path
         d="M 0,792 H 612 V 0 H 0 Z"
         id="path270" /></clipPath></defs><sodipodi:namedview
     id="namedview4"
     pagecolor="#ffffff"
     bordercolor="#666666"
     borderopacity="1.0"
     inkscape:pageshadow="2"
     inkscape:pageopacity="0.0"
     inkscape:pagecheckerboard="0" /><g
     id="g8"
     inkscape:groupmode="layer"
     inkscape:label="jacobicons[1]"
     transform="matrix(1.3333333,0,0,-1.3333333,0,1056)"><g
       id="g10"><g
         id="g12"
         clip-path="url(#clipPath16)"><g
           id="g18"
           transform="translate(374.1943,230.0723)"><path
             d="m 0,0 c 0,0 -4.087,-0.494 -4.474,1.401 0,0 -1.372,1.52 3.745,5.151 0,0 11.836,9.34 31.179,12.381 0,0 4.383,0.216 2.427,-3.602 l 34.705,47.738 c 0,0 4.571,4.623 2.474,-1.919 0,0 -0.311,-3.964 -4.676,-6 0,0 -0.635,-7.188 -6.109,-7.914 0,0 -0.087,-4.442 -5.763,-7.587 L 33.572,12.416 36.976,6.363 c 0,0 -0.123,-2.051 -1.928,-1.563 l 17.279,-21.92 c 0,0 2.105,-3.088 0.472,-4.929 0,0 -17.911,-20.891 -43.371,-17.401 0,0 -2.387,1.379 -2.1,4.502 z"
             style="fill:none;stroke:#060808;stroke-width:6;stroke-linecap:butt;stroke-linejoin:miter;stroke-miterlimit:10;stroke-dasharray:none;stroke-opacity:1"
             id="path20" /></g><g
           id="g22"
           transform="translate(374.3936,230.4912)"><path
             d="m 0,0 c 0,0 5.578,1.75 11.441,4.67 0,0 8.996,-1.965 12.765,5.927 l 7.76,4.551"
             style="fill:none;stroke:#060808;stroke-width:6;stroke-linecap:butt;stroke-linejoin:miter;stroke-miterlimit:10;stroke-dasharray:none;stroke-opacity:1"
             id="path24" /></g><g
           id="g26"
           transform="translate(408.6504,238.0654)"><path
             d="M 0,0 -5.819,3.688"
             style="fill:none;stroke:#060808;stroke-width:6;stroke-linecap:butt;stroke-linejoin:miter;stroke-miterlimit:10;stroke-dasharray:none;stroke-opacity:1"
             id="path28" /></g></g></g><g
       id="g30"><g
         id="g32"
         clip-path="url(#clipPath36)"><g
           id="g38"
           transform="translate(363.124,582.1284)"><path
             d="m 0,0 c 3.063,-7.568 14.056,-31.354 14.056,-31.354 0,0 -7.929,-0.181 -12.074,-3.244 0,0 -6.306,-5.226 3.964,-7.569 0,0 26.67,-9.73 58.745,-0.9 0,0 13.515,4.685 0,9.91 l -5.766,1.803 3.244,5.045 L 75.323,0 c 0,0 4.324,3.424 0,5.586 0,0 -22.705,8.289 -75.323,1.262 0,0 -4.324,-2.703 0,-6.848 z"
             style="fill:none;stroke:#231f20;stroke-width:6;stroke-linecap:butt;stroke-linejoin:miter;stroke-miterlimit:10;stroke-dasharray:none;stroke-opacity:1"
             id="path40" /></g><g
           id="g42"
           transform="translate(440.3496,585.5654)"><path
             d="m 0,0 c 0,0 15.036,-3.437 16.838,-6 0,0 4.685,-8.249 -9.551,-17.079 0,0 -8.289,-6.667 -22.344,-6.667 l 2.162,4.325 c 0,0 13.696,-0.721 25.228,13.335 0,0 0.901,4.364 -1.262,5.225 l -12.973,3.424 c -45.591,-11.533 -75.324,0 -75.324,0"
             style="fill:none;stroke:#231f20;stroke-width:6;stroke-linecap:butt;stroke-linejoin:miter;stroke-miterlimit:10;stroke-dasharray:none;stroke-opacity:1"
             id="path44" /></g><g
           id="g46"
           transform="translate(377.1797,550.7739)"><path
             d="m 0,0 3.784,-7.388 c 0,0 15.497,-8.469 36.58,0 L 42.166,-6.487 44.869,0"
             style="fill:none;stroke:#231f20;stroke-width:6;stroke-linecap:butt;stroke-linejoin:miter;stroke-miterlimit:10;stroke-dasharray:none;stroke-opacity:1"
             id="path48" /></g><g
           id="g50"
           transform="translate(136.7769,580.29)"><path
             d="m 0,0 c 3.063,-7.568 14.055,-31.354 14.055,-31.354 0,0 -7.929,-0.181 -12.073,-3.244 0,0 -6.307,-5.226 3.964,-7.569 0,0 26.67,-9.73 58.745,-0.9 0,0 13.515,4.685 0,9.91 l -5.766,1.803 3.243,5.045 L 75.323,0 c 0,0 4.324,3.424 0,5.586 0,0 -22.705,8.289 -75.323,1.262 0,0 -4.325,-2.703 0,-6.848 z"
             style="fill:none;stroke:#231f20;stroke-width:6;stroke-linecap:butt;stroke-linejoin:miter;stroke-miterlimit:10;stroke-dasharray:none;stroke-opacity:1"
             id="path52" /></g><g
           id="g54"
           transform="translate(214.002,583.7271)"><path
             d="m 0,0 c 0,0 15.036,-3.437 16.838,-6 0,0 4.685,-8.249 -9.55,-17.079 0,0 -8.289,-6.667 -22.345,-6.667 l 2.162,4.325 c 0,0 13.696,-0.721 25.228,13.335 0,0 0.901,4.364 -1.261,5.225 l -12.974,3.424 c -45.591,-11.533 -75.323,0 -75.323,0"
             style="fill:none;stroke:#231f20;stroke-width:6;stroke-linecap:butt;stroke-linejoin:miter;stroke-miterlimit:10;stroke-dasharray:none;stroke-opacity:1"
             id="path56" /></g><g
           id="g58"
           transform="translate(195.7017,548.9355)"><path
             d="m 0,0 -2.703,-6.487 -1.802,-0.901 c -21.083,-8.469 -36.58,0 -36.58,0 L -44.87,0"
             style="fill:none;stroke:#231f20;stroke-width:6;stroke-linecap:butt;stroke-linejoin:miter;stroke-miterlimit:10;stroke-dasharray:none;stroke-opacity:1"
             id="path60" /></g><g
           id="g62"
           transform="translate(140.8271,570.9336)"><path
             d="M 0,0 C 0,0 24.027,-15.369 66.926,0"
             style="fill:none;stroke:#231f20;stroke-width:6;stroke-linecap:butt;stroke-linejoin:miter;stroke-miterlimit:10;stroke-dasharray:none;stroke-opacity:1"
             id="path64" /></g><g
           id="g66"
           transform="translate(145.5728,560.4126)"><path
             d="M 0,0 C 0,0 21.523,-11.911 57.253,0"
             style="fill:none;stroke:#231f20;stroke-width:6;stroke-linecap:butt;stroke-linejoin:miter;stroke-miterlimit:10;stroke-dasharray:none;stroke-opacity:1"
             id="path68" /></g><g
           id="g70"
           transform="translate(149.8608,551.043)"><path
             d="M 0,0 C 0,0 19.523,-9.935 47.441,0.382"
             style="fill:none;stroke:#231f20;stroke-width:6;stroke-linecap:butt;stroke-linejoin:miter;stroke-miterlimit:10;stroke-dasharray:none;stroke-opacity:1"
             id="path72" /></g><g
           id="g74"
           transform="translate(400.7441,524.5376)"><path
             d="m 0,0 -7.146,-17.126 c 0,0 -1.833,-8.282 7.146,-9.628 0,0 7.636,0.56 7.376,8.617 z"
             style="fill:none;stroke:#231f20;stroke-width:6;stroke-linecap:butt;stroke-linejoin:miter;stroke-miterlimit:10;stroke-dasharray:none;stroke-opacity:1"
             id="path76" /></g><g
           id="g78"
           transform="translate(173.2261,523.5376)"><path
             d="m 0,0 -7.146,-17.126 c 0,0 -1.833,-8.282 7.146,-9.628 0,0 7.635,0.56 7.375,8.617 z"
             style="fill:none;stroke:#231f20;stroke-width:6;stroke-linecap:butt;stroke-linejoin:miter;stroke-miterlimit:10;stroke-dasharray:none;stroke-opacity:1"
             id="path80" /></g><g
           id="g82"
           transform="translate(358.0215,218.2725)"><path
             d="m 0,0 -15.677,-9.931 c 0,0 -6.252,-5.732 0.331,-11.985 0,0 6.575,-3.921 10.984,2.828 z"
             style="fill:none;stroke:#231f20;stroke-width:6;stroke-linecap:butt;stroke-linejoin:miter;stroke-miterlimit:10;stroke-dasharray:none;stroke-opacity:1"
             id="path84" /></g><g
           id="g86"
           transform="translate(391.6787,770.5498)"><path
             d="m 0,0 c 0,0 -2.433,-1.622 0,-3.063 v -18.291 h -1.712 v -31.084 c 0,0 -4.144,-3.874 0,-8.019 l -0.064,-29.642 c 0,0 1.416,-2.523 3.128,-2.523 0,0 1.982,-1.892 19.912,0 0,0 3.153,0.541 3.153,6.217 v 25.859 c 0,0 3.244,4.054 0,8.108 l -0.09,31.355 -1.892,-0.09 -0.09,18.11 c 0,0 1.712,1.711 0,3.063 z"
             style="fill:none;stroke:#231f20;stroke-width:6;stroke-linecap:butt;stroke-linejoin:miter;stroke-miterlimit:10;stroke-dasharray:none;stroke-opacity:1"
             id="path88" /></g><g
           id="g90"
           transform="translate(393.0078,749.1963)"><path
             d="M 0,0 H 20.476"
             style="fill:none;stroke:#231f20;stroke-width:6;stroke-linecap:butt;stroke-linejoin:miter;stroke-miterlimit:10;stroke-dasharray:none;stroke-opacity:1"
             id="path92" /></g><g
           id="g94"
           transform="translate(389.9668,718.1123)"><path
             d="M 0,0 H 25.679"
             style="fill:none;stroke:#231f20;stroke-width:6;stroke-linecap:butt;stroke-linejoin:miter;stroke-miterlimit:10;stroke-dasharray:none;stroke-opacity:1"
             id="path96" /></g><g
           id="g98"
           transform="translate(390.2373,705.4087)"><path
             d="M 0,0 H 25.408"
             style="fill:none;stroke:#231f20;stroke-width:6;stroke-linecap:butt;stroke-linejoin:miter;stroke-miterlimit:10;stroke-dasharray:none;stroke-opacity:1"
             id="path100" /></g><g
           id="g102"
           transform="translate(395.0127,710.4087)"><path
             d="M 0,0 V -32.3"
             style="fill:none;stroke:#231f20;stroke-width:6;stroke-linecap:butt;stroke-linejoin:miter;stroke-miterlimit:10;stroke-dasharray:none;stroke-opacity:1"
             id="path104" /></g><g
           id="g106"
           transform="translate(400.3281,710.4087)"><path
             d="M 0,0 V -32.3"
             style="fill:none;stroke:#231f20;stroke-width:6;stroke-linecap:butt;stroke-linejoin:miter;stroke-miterlimit:10;stroke-dasharray:none;stroke-opacity:1"
             id="path108" /></g><g
           id="g110"
           transform="translate(405.6445,709.8682)"><path
             d="M 0,0 V -32.301"
             style="fill:none;stroke:#231f20;stroke-width:6;stroke-linecap:butt;stroke-linejoin:miter;stroke-miterlimit:10;stroke-dasharray:none;stroke-opacity:1"
             id="path112" /></g><g
           id="g114"
           transform="translate(410.5098,709.8682)"><path
             d="M 0,0 V -32.301"
             style="fill:none;stroke:#231f20;stroke-width:6;stroke-linecap:butt;stroke-linejoin:miter;stroke-miterlimit:10;stroke-dasharray:none;stroke-opacity:1"
             id="path116" /></g><g
           id="g118"
           transform="translate(150.0254,744.0737)"><path
             d="m 0,0 v -53.924 c 0,0 -0.659,-6.994 1.622,-8.059 h 32.841 c 0,0 2.28,0.152 3.496,4.409 L 39.784,0 v 8.413 l 1.521,1.976 v 2.129 l -2.281,0.76 c 0,0 -19.689,18.853 -39.112,0 L -0.963,11.149 0.861,9.021 c 0,0 -2.584,0 -5.169,-2.433 V 4.459 l 3.953,-1.063 z"
             style="fill:none;stroke:#231f20;stroke-width:6;stroke-linecap:butt;stroke-linejoin:miter;stroke-miterlimit:10;stroke-dasharray:none;stroke-opacity:1"
             id="path120" /></g><g
           id="g122"
           transform="translate(150.8867,753.0947)"><path
             d="M 0,0 H 39.391"
             style="fill:none;stroke:#231f20;stroke-width:6;stroke-linecap:butt;stroke-linejoin:miter;stroke-miterlimit:10;stroke-dasharray:none;stroke-opacity:1"
             id="path124" /></g><g
           id="g126"
           transform="translate(149.9233,745.0469)"><path
             d="M 0,0 H 39.278"
             style="fill:none;stroke:#231f20;stroke-width:6;stroke-linecap:butt;stroke-linejoin:miter;stroke-miterlimit:10;stroke-dasharray:none;stroke-opacity:1"
             id="path128" /></g><g
           id="g130"
           transform="translate(149.9233,737.4346)"><path
             d="M 0,0 H 39.278"
             style="fill:none;stroke:#231f20;stroke-width:6;stroke-linecap:butt;stroke-linejoin:miter;stroke-miterlimit:10;stroke-dasharray:none;stroke-opacity:1"
             id="path132" /></g><g
           id="g134"
           transform="translate(150.4961,757.8794)"><path
             d="M 0,0 38.553,-0.527"
             style="fill:none;stroke:#231f20;stroke-width:6;stroke-linecap:butt;stroke-linejoin:miter;stroke-miterlimit:10;stroke-dasharray:none;stroke-opacity:1"
             id="path136" /></g><g
           id="g138"
           transform="translate(149.9233,712.6514)"><path
             d="M 0,0 H 38.891 L 38.12,-24.319 37.682,-27.273 35.527,-30.184 30.561,-30.561 1.56,-30.467 0.325,-28.164 0,-24.022 0.102,-11.96 0.507,-0.203"
             style="fill:#231f20;fill-opacity:1;fill-rule:nonzero;stroke:none"
             id="path140" /></g><g
           id="g142"
           transform="translate(174.2505,764.7212)"><path
             d="m 0,0 c 0,-2.379 -1.929,-4.308 -4.308,-4.308 -2.379,0 -4.308,1.929 -4.308,4.308 0,2.379 1.929,4.308 4.308,4.308 C -1.929,4.308 0,2.379 0,0"
             style="fill:#231f20;fill-opacity:1;fill-rule:nonzero;stroke:none"
             id="path144" /></g><g
           id="g146"
           transform="translate(189.7715,742.8633)"><path
             d="m 0,0 c 0,0 12.125,3.162 17.827,-5.429 -0.035,-0.127 13.008,-23.323 -1.976,-39.607 0,0 -6.934,-5.626 -16.809,-3.345 v 6.082 c 0,0 11.259,-4.181 15.972,5.321 0,0 5.398,7.831 0.153,26.38 0,0 -2.408,7.196 -14.875,6.031"
             style="fill:none;stroke:#231f20;stroke-width:6;stroke-linecap:butt;stroke-linejoin:miter;stroke-miterlimit:10;stroke-dasharray:none;stroke-opacity:1"
             id="path148" /></g><g
           id="g150"
           transform="translate(170.4717,433.1631)"><path
             d="M 0,0 -1.501,8.229 H 7.884 L 6.194,-0.03 Z"
             style="fill:#231f20;fill-opacity:1;fill-rule:nonzero;stroke:none"
             id="path152" /></g><g
           id="g154"
           transform="translate(206.3574,417.6206)"><path
             d="m 0,0 0.905,11.195 h 6.57 L 16.109,0.684 5.9,-29.162 l -7.811,-0.562 -1.877,5.255 7.224,0.92 L 5.9,-12.08 6.161,0.496 Z"
             style="fill:#231f20;fill-opacity:1;fill-rule:nonzero;stroke:none"
             id="path156" /></g><g
           id="g158"
           transform="translate(155.0181,390.7021)"><path
             d="M 0,0 C 0,0 18.093,-9.761 37.166,0.563"
             style="fill:none;stroke:#231f20;stroke-width:6;stroke-linecap:butt;stroke-linejoin:miter;stroke-miterlimit:10;stroke-dasharray:none;stroke-opacity:1"
             id="path160" /></g><g
           id="g162"
           transform="translate(193.1841,421.6885)"><path
             d="M 0,0 -2.238,-32.542"
             style="fill:none;stroke:#231f20;stroke-width:6;stroke-linecap:butt;stroke-linejoin:miter;stroke-miterlimit:10;stroke-dasharray:none;stroke-opacity:1"
             id="path164" /></g><g
           id="g166"
           transform="translate(179.3159,385.8203)"><path
             d="M 0,0 1.386,34.361"
             style="fill:none;stroke:#231f20;stroke-width:6;stroke-linecap:butt;stroke-linejoin:miter;stroke-miterlimit:10;stroke-dasharray:none;stroke-opacity:1"
             id="path168" /></g><g
           id="g170"
           transform="translate(165.3501,386.5176)"><path
             d="M 0,0 -2.95,33.664"
             style="fill:none;stroke:#231f20;stroke-width:6;stroke-linecap:butt;stroke-linejoin:miter;stroke-miterlimit:10;stroke-dasharray:none;stroke-opacity:1"
             id="path172" /></g><g
           id="g174"
           transform="translate(161.6543,345.4893)"><path
             d="M 0,0 2.221,33.266"
             style="fill:none;stroke:#231f20;stroke-width:6;stroke-linecap:butt;stroke-linejoin:miter;stroke-miterlimit:10;stroke-dasharray:none;stroke-opacity:1"
             id="path176" /></g><g
           id="g178"
           transform="translate(177.6045,343.8691)"><path
             d="M 0,0 -1.126,33.791"
             style="fill:none;stroke:#231f20;stroke-width:6;stroke-linecap:butt;stroke-linejoin:miter;stroke-miterlimit:10;stroke-dasharray:none;stroke-opacity:1"
             id="path180" /></g><g
           id="g182"
           transform="translate(190.9458,348.123)"><path
             d="M 0,0 -3.921,32.309"
             style="fill:none;stroke:#231f20;stroke-width:6;stroke-linecap:butt;stroke-linejoin:miter;stroke-miterlimit:10;stroke-dasharray:none;stroke-opacity:1"
             id="path184" /></g><g
           id="g186"
           transform="translate(147.9468,427.9956)"><path
             d="M 0,0 2.44,-18.395 -9.198,-4.317 Z"
             style="fill:none;stroke:#231f20;stroke-width:6;stroke-linecap:butt;stroke-linejoin:miter;stroke-miterlimit:10;stroke-dasharray:none;stroke-opacity:1"
             id="path188" /></g><g
           id="g190"
           transform="translate(154.7041,391.4629)"><path
             d="M 0,0 -4.317,18.207 Z"
             style="fill:none;stroke:#231f20;stroke-width:6;stroke-linecap:butt;stroke-linejoin:miter;stroke-miterlimit:10;stroke-dasharray:none;stroke-opacity:1"
             id="path192" /></g><g
           id="g194"
           transform="translate(156.0181,382.1504)"><path
             d="m 0,0 -3.472,-25.038 v -5.819 c 0,0 21.492,-18.395 44.392,2.065 L 37.166,1.053 C 14.641,-10.772 0,0 0,0 l -1.314,9.313"
             style="fill:none;stroke:#231f20;stroke-width:6;stroke-linecap:butt;stroke-linejoin:miter;stroke-miterlimit:10;stroke-dasharray:none;stroke-opacity:1"
             id="path196" /></g><g
           id="g198"
           transform="translate(191.4946,380.4316)"><path
             d="M 0,0 1.126,9.948 6.007,34.35 6.194,44.862 0,38.485 -12.482,36.978 h -18.302 l -13.807,3.015"
             style="fill:none;stroke:#231f20;stroke-width:6;stroke-linecap:butt;stroke-linejoin:miter;stroke-miterlimit:10;stroke-dasharray:none;stroke-opacity:1"
             id="path200" /></g><g
           id="g202"
           transform="translate(147.9468,428.0654)"><path
             d="M 0,0 9.198,3.378 22.525,5.098 32.755,5.068 52.37,1.689"
             style="fill:none;stroke:#231f20;stroke-width:6;stroke-linecap:butt;stroke-linejoin:miter;stroke-miterlimit:10;stroke-dasharray:none;stroke-opacity:1"
             id="path204" /></g><g
           id="g206"
           transform="translate(199.3784,428.0654)"><path
             d="M 0,0 H 9.948"
             style="fill:none;stroke:#231f20;stroke-width:6;stroke-linecap:butt;stroke-linejoin:miter;stroke-miterlimit:10;stroke-dasharray:none;stroke-opacity:1"
             id="path208" /></g><g
           id="g210"
           transform="translate(199.3169,417.6475)"><path
             d="M 0,0 8.246,1.15"
             style="fill:none;stroke:#231f20;stroke-width:6;stroke-linecap:butt;stroke-linejoin:miter;stroke-miterlimit:10;stroke-dasharray:none;stroke-opacity:1"
             id="path212" /></g><g
           id="g214"
           transform="translate(376.4746,439.6802)"><path
             d="m 0,0 9.123,-16.978 c 0,0 -3.041,-0.507 -1.52,-3.041 0,0 10.642,-15.458 1.52,-23.82 0,0 -2.174,-2.534 0.76,-6.081 L 0,-72.22 c 0,0 -1.847,-5.575 2.281,-10.643 0,0 25.087,-10.389 50.934,1.014 0,0 3.295,6.081 1.774,11.656 l -9.883,21.286 c 0,0 2.304,0.317 1.153,6.367 0,0 -5.691,8.077 0,19.987 0,0 2.165,2.787 0,4.815 L 55.39,0 Z"
             style="fill:none;stroke:#231f20;stroke-width:6;stroke-linecap:butt;stroke-linejoin:miter;stroke-miterlimit:10;stroke-dasharray:none;stroke-opacity:1"
             id="path216" /></g><g
           id="g218"
           transform="translate(384.3525,422.1953)"><path
             d="M 0,0 38.381,-0.253"
             style="fill:none;stroke:#231f20;stroke-width:6;stroke-linecap:butt;stroke-linejoin:miter;stroke-miterlimit:10;stroke-dasharray:none;stroke-opacity:1"
             id="path220" /></g><g
           id="g222"
           transform="translate(389.1025,407.1968)"><path
             d="M 0,0 H 31.109"
             style="fill:none;stroke:#231f20;stroke-width:6;stroke-linecap:butt;stroke-linejoin:miter;stroke-miterlimit:10;stroke-dasharray:none;stroke-opacity:1"
             id="path224" /></g><g
           id="g226"
           transform="translate(385.4111,391.1807)"><path
             d="M 0,0 H 38.45"
             style="fill:none;stroke:#231f20;stroke-width:6;stroke-linecap:butt;stroke-linejoin:miter;stroke-miterlimit:10;stroke-dasharray:none;stroke-opacity:1"
             id="path228" /></g><g
           id="g230"
           transform="translate(376.4746,367.46)"><path
             d="m 0,0 2.514,0.051 52.681,1.052 -1.043,-8.582 -22.168,-7.325 -21.732,1.771 -8.731,6.182"
             style="fill:#231f20;fill-opacity:1;fill-rule:nonzero;stroke:none"
             id="path232" /></g><g
           id="g234"
           transform="translate(377.8096,370.4707)"><path
             d="M 0,0 H 52.417"
             style="fill:none;stroke:#231f20;stroke-width:7;stroke-linecap:butt;stroke-linejoin:miter;stroke-miterlimit:10;stroke-dasharray:none;stroke-opacity:1"
             id="path236" /></g><g
           id="g238"
           transform="translate(140.771,217.1377)"><path
             d="M 0,0 H 69.179 V -10.39 H -2.28 v 71.46 h 63.097 c 0,0 8.869,-8.362 0,-18.752 l -2.28,-1.52 H -1.267 20.526 V 0"
             style="fill:none;stroke:#231f20;stroke-width:6;stroke-linecap:butt;stroke-linejoin:miter;stroke-miterlimit:10;stroke-dasharray:none;stroke-opacity:1"
             id="path240" /></g><g
           id="g242"
           transform="translate(139.7578,267.5654)"><path
             d="M 0,0 H 65.691"
             style="fill:none;stroke:#231f20;stroke-width:6;stroke-linecap:butt;stroke-linejoin:miter;stroke-miterlimit:10;stroke-dasharray:none;stroke-opacity:1"
             id="path244" /></g><path
           d="m 195.506,251.094 h -9.376 v 4.055 h 9.376 z"
           style="fill:none;stroke:#231f20;stroke-width:6;stroke-linecap:butt;stroke-linejoin:miter;stroke-miterlimit:10;stroke-dasharray:none;stroke-opacity:1"
           id="path246" /><path
           d="m 150.781,238.297 h -1.774 V 249.7 h 1.774 z"
           style="fill:#231f20;fill-opacity:1;fill-rule:nonzero;stroke:#231f20;stroke-width:2;stroke-linecap:butt;stroke-linejoin:miter;stroke-miterlimit:10;stroke-dasharray:none;stroke-opacity:1"
           id="path248" /><g
           id="g250"
           transform="translate(154.0747,229.8076)"><path
             d="m 0,0 c 0,-2.309 -1.872,-4.181 -4.181,-4.181 -2.309,0 -4.181,1.872 -4.181,4.181 0,2.31 1.872,4.182 4.181,4.182 C -1.872,4.182 0,2.31 0,0 Z"
             style="fill:none;stroke:#231f20;stroke-width:2;stroke-linecap:butt;stroke-linejoin:miter;stroke-miterlimit:10;stroke-dasharray:none;stroke-opacity:1"
             id="path252" /></g><g
           id="g254"
           transform="translate(178.0215,240.1973)"><path
             d="m 0,0 h 24.58 v -13.684 c 0,0 -11.403,-15.964 -24.58,0 z"
             style="fill:none;stroke:#231f20;stroke-width:6;stroke-linecap:butt;stroke-linejoin:miter;stroke-miterlimit:10;stroke-dasharray:none;stroke-opacity:1"
             id="path256" /></g><g
           id="g258"
           transform="translate(202.6016,236.6494)"><path
             d="M 0,0 H 2.848"
             style="fill:none;stroke:#231f20;stroke-width:6;stroke-linecap:butt;stroke-linejoin:miter;stroke-miterlimit:10;stroke-dasharray:none;stroke-opacity:1"
             id="path260" /></g></g></g><text
       transform="rotate(180,105.49685,113.9663)"
       style="font-variant:normal;font-weight:normal;font-stretch:normal;font-size:16.2px;font-family:'Myriad Pro';-inkscape-font-specification:MyriadPro-Regular;writing-mode:lr-tb;fill:#000000;fill-opacity:1;fill-rule:nonzero;stroke:none"
       id="text264"><tspan
         x="0"
         y="0"
         id="tspan262">c</tspan></text><g
       id="g266"><g
         id="g268"
         clip-path="url(#clipPath272)"><g
           id="g274"
           transform="translate(204.4648,229.293)"><path
             d="m 0,0 c 0.405,-0.178 0.94,-0.389 1.75,-0.389 1.555,0 2.721,1.118 2.721,2.933 0,1.636 -0.971,2.965 -2.77,2.965 -0.777,0 -1.312,-0.179 -1.652,-0.373 l -0.324,1.101 c 0.389,0.195 1.134,0.406 1.976,0.406 2.56,0 4.212,-1.75 4.212,-4.164 0,-2.398 -1.539,-4.001 -3.904,-4.001 -1.053,0 -1.879,0.259 -2.252,0.454 z"
             style="fill:none;stroke:#231f20;stroke-width:6;stroke-linecap:butt;stroke-linejoin:miter;stroke-miterlimit:10;stroke-dasharray:none;stroke-opacity:1"
             id="path276" /></g><g
           id="g278"
           transform="translate(137.1509,123.501)"><path
             d="M 0,0 8.041,-73.792 H 50.14 L 57.551,0 Z"
             style="fill:none;stroke:#231f20;stroke-width:6;stroke-linecap:butt;stroke-linejoin:miter;stroke-miterlimit:10;stroke-dasharray:none;stroke-opacity:1"
             id="path280" /></g><g
           id="g282"
           transform="translate(146.7686,98.1152)"><path
             d="m 0,0 3.469,-40.995 h 30.904 l 3.469,42.887 c 0,0 -9.934,5.361 -18.684,-1.577 C 10.407,-6.622 0,0 0,0"
             style="fill:#231f20;fill-opacity:1;fill-rule:nonzero;stroke:none"
             id="path284" /></g><g
           id="g286"
           transform="translate(164.1089,93.8955)"><path
             d="m 0,0 v 21.759 c 0,0 2.735,3.348 2.735,0 V 0 Z"
             style="fill:#231f20;fill-opacity:1;fill-rule:nonzero;stroke:none"
             id="path288" /></g><g
           id="g290"
           transform="translate(164.1089,134.3799)"><path
             d="m 0,0 v 9.461 l 20.501,14.19 c 0,0 2.602,0.788 1.893,-2.365 L 4.024,8.199 3.946,0 Z"
             style="fill:#231f20;fill-opacity:1;fill-rule:nonzero;stroke:none"
             id="path292" /></g><g
           id="g294"
           transform="translate(139.2002,128.2305)"><path
             d="m 0,0 c 0,0 -2.365,1.971 0,3.312 h 53.846 c 0,0 2.365,-1.499 0,-3.312 z"
             style="fill:#231f20;fill-opacity:1;fill-rule:nonzero;stroke:none"
             id="path296" /></g><g
           id="g298"
           transform="translate(372.7412,122.5889)"><path
             d="M 0,0 C 0,0 -28.311,-4.257 4.896,-52.576 L 2.979,-71.521 c 0,0 22.564,-23.414 61.304,0 l -4.895,33.632 12.133,31.716 2.128,0.639 c 0,0 7.663,2.98 0,4.258 L 55.343,0 55.556,2.555 c 0,0 1.916,2.129 -0.426,4.895 l -9.365,3.832 c 0,0 -12.346,5.534 -25.543,0 L 10.217,6.812 c 0,0 -2.767,-2.554 -0.639,-5.109 z"
             style="fill:none;stroke:#010101;stroke-width:6;stroke-linecap:butt;stroke-linejoin:miter;stroke-miterlimit:10;stroke-dasharray:none;stroke-opacity:1"
             id="path300" /></g><g
           id="g302"
           transform="translate(383.3838,123.3818)"><path
             d="M 0,0 C 0,0 19.051,-10.441 44.274,1.064"
             style="fill:none;stroke:#010101;stroke-width:6;stroke-linecap:butt;stroke-linejoin:miter;stroke-miterlimit:10;stroke-dasharray:none;stroke-opacity:1"
             id="path304" /></g><g
           id="g306"
           transform="translate(422.3369,115.6709)"><path
             d="M 0,0 22.706,0.979 8.94,-31.503 Z"
             style="fill:none;stroke:#010101;stroke-width:6;stroke-linecap:butt;stroke-linejoin:miter;stroke-miterlimit:10;stroke-dasharray:none;stroke-opacity:1"
             id="path308" /></g><g
           id="g310"
           transform="translate(378.2754,70.0127)"><path
             d="m 0,0 0.532,5.641 c 0,0 -12.026,19.477 -12.558,26.713 0,0 -5.215,19.938 16.709,16.674 H 5.96 L 0.852,6.705 7.051,52.475"
             style="fill:none;stroke:#010101;stroke-width:6;stroke-linecap:butt;stroke-linejoin:miter;stroke-miterlimit:10;stroke-dasharray:none;stroke-opacity:1"
             id="path312" /></g><g
           id="g314"
           transform="translate(422.3369,115.6709)"><path
             d="M 0,0 5.782,7.332 24.627,5.536 26.723,4.878 25.01,1.81 19.051,0.979 2.331,1.81"
             style="fill:#010101;fill-opacity:1;fill-rule:nonzero;stroke:none"
             id="path316" /></g><g
           id="g318"
           transform="translate(429.5742,116.6504)"><path
             d="m 0,0 h -8.163 l 6.708,6.353 z"
             style="fill:#010101;fill-opacity:1;fill-rule:nonzero;stroke:none"
             id="path320" /></g><g
           id="g322"
           transform="translate(429.5742,116.6504)"><path
             d="m 0,0 h -8.163 l 6.708,6.353 z"
             style="fill:none;stroke:#010101;stroke-width:2;stroke-linecap:butt;stroke-linejoin:miter;stroke-miterlimit:10;stroke-dasharray:none;stroke-opacity:1"
             id="path324" /></g><g
           id="g326"
           transform="translate(413.6572,141.4395)"><path
             d="m 0,0 c 0,-2.822 -3.812,-5.109 -8.514,-5.109 -4.702,0 -8.514,2.287 -8.514,5.109 0,2.821 3.812,5.108 8.514,5.108 C -3.812,5.108 0,2.821 0,0"
             style="fill:#010101;fill-opacity:1;fill-rule:nonzero;stroke:none"
             id="path328" /></g><g
           id="g330"
           transform="translate(413.6572,141.4395)"><path
             d="m 0,0 c 0,-2.822 -3.812,-5.109 -8.514,-5.109 -4.702,0 -8.514,2.287 -8.514,5.109 0,2.821 3.812,5.108 8.514,5.108 C -3.812,5.108 0,2.821 0,0 Z"
             style="fill:none;stroke:#010101;stroke-width:2;stroke-linecap:butt;stroke-linejoin:miter;stroke-miterlimit:10;stroke-dasharray:none;stroke-opacity:1"
             id="path332" /></g><g
           id="g334"
           transform="translate(420.3477,120.6514)"><path
             d="M 0,0 1.819,-4.757"
             style="fill:#010101;fill-opacity:1;fill-rule:nonzero;stroke:#010101;stroke-width:6;stroke-linecap:butt;stroke-linejoin:miter;stroke-miterlimit:10;stroke-dasharray:none;stroke-opacity:1"
             id="path336" /></g><g
           id="g338"
           transform="translate(393.6875,119.3369)"><path
             d="M 0,0 -7.45,-75.051"
             style="fill:#010101;fill-opacity:1;fill-rule:nonzero;stroke:#010101;stroke-width:6;stroke-linecap:butt;stroke-linejoin:miter;stroke-miterlimit:10;stroke-dasharray:none;stroke-opacity:1"
             id="path340" /></g><g
           id="g342"
           transform="translate(410.5039,119.041)"><path
             d="M 0,0 11.663,-75.09"
             style="fill:#010101;fill-opacity:1;fill-rule:nonzero;stroke:#010101;stroke-width:6;stroke-linecap:butt;stroke-linejoin:miter;stroke-miterlimit:10;stroke-dasharray:none;stroke-opacity:1"
             id="path344" /></g><g
           id="g346"
           transform="translate(373.0986,233.2744)"><path
             d="m 0,0 c 1.288,-0.483 2.792,-1.334 4.197,-1.038 1.506,0.317 1.89,1.344 2.525,2.583 1.015,1.985 4.203,1.543 6.043,1.925 5.323,1.104 10.116,4.18 14.679,6.993 2.026,1.248 1.303,4.769 -1.261,4.658 C 23.657,15.012 21.08,15.043 18.57,14.734 16.272,14.451 13.985,13.577 12.912,11.365 11.905,9.29 12.224,6.626 14.24,5.274 c 2.146,-1.439 4.979,-0.85 7.131,0.245 2.868,1.46 0.341,5.775 -2.523,4.317 -0.45,-0.229 -0.886,-0.284 -1.364,-0.407 -0.422,-0.11 -0.551,0.185 -0.188,-0.347 0.172,-0.253 -0.088,-0.121 0.067,0.035 0.22,0.219 0.19,0.3 0.595,0.433 1.058,0.345 2.195,0.309 3.296,0.357 1.642,0.072 3.286,0.143 4.929,0.214 -0.421,1.553 -0.841,3.107 -1.262,4.659 C 21.012,12.371 17.004,9.743 12.521,8.548 10.319,7.961 7.936,8.148 5.838,7.21 3.697,6.251 2.466,4.481 1.681,2.341 1.895,2.709 2.109,3.076 2.323,3.444 2.26,3.366 2.195,3.287 2.131,3.209 2.499,3.424 2.866,3.638 3.234,3.853 3.112,3.829 2.99,3.807 2.867,3.783 h 1.33 C 3.223,4.052 2.275,4.466 1.329,4.821 0.065,5.296 -1.411,4.293 -1.746,3.075 -2.131,1.673 -1.269,0.476 0,0"
             style="fill:#000000;fill-opacity:1;fill-rule:nonzero;stroke:none"
             id="path348" /></g></g></g></g></svg>
