<svg xmlns="http://www.w3.org/2000/svg" xmlns:xlink="http://www.w3.org/1999/xlink" width="500" zoomAndPan="magnify" viewBox="0 0 375 374.999991" height="500" preserveAspectRatio="xMidYMid meet" version="1.0"><defs><clipPath id="674f9307af"><path d="M 37.5 47.242188 L 337.5 47.242188 L 337.5 327.742188 L 37.5 327.742188 Z M 37.5 47.242188 " clip-rule="nonzero"/></clipPath></defs><g clip-path="url(#674f9307af)"><path stroke-linecap="butt" transform="matrix(2.740184, 0, 0, -2.740523, 63.549317, 88.638861)" fill="none" stroke-linejoin="miter" d="M 0.000534316 -0.000643826 C 3.062601 -7.567914 14.056389 -31.354429 14.056389 -31.354429 C 14.056389 -31.354429 6.127519 -31.535451 1.982039 -34.598563 C 1.982039 -34.598563 -4.324563 -39.823957 5.946475 -42.167259 C 5.946475 -42.167259 32.615535 -51.896811 64.691681 -43.066665 C 64.691681 -43.066665 78.20583 -38.381486 64.691681 -33.157518 L 58.925359 -31.354429 L 62.16847 -26.308632 L 75.323382 -0.000643826 C 75.323382 -0.000643826 79.647054 3.424512 75.323382 5.585367 C 75.323382 5.585367 52.617331 13.875298 0.000534316 6.848242 C 0.000534316 6.848242 -4.324563 4.144322 0.000534316 -0.000643826 Z M 0.000534316 -0.000643826 " stroke="#231f20" stroke-width="6" stroke-opacity="1" stroke-miterlimit="10"/><path stroke-linecap="butt" transform="matrix(2.740184, 0, 0, -2.740523, 275.162739, 79.219682)" fill="none" stroke-linejoin="miter" d="M 0.000482913 0.00034008 C 0.000482913 0.00034008 15.035686 -3.437644 16.837573 -6.000453 C 16.837573 -6.000453 21.523333 -14.249048 7.286434 -23.079193 C 7.286434 -23.079193 -1.001674 -29.745632 -15.057529 -29.745632 L -12.89498 -25.42107 C -12.89498 -25.42107 0.801638 -26.142306 12.332856 -12.085342 C 12.332856 -12.085342 13.2338 -7.722295 11.071251 -6.861374 L -1.902617 -3.437644 C -47.492912 -14.970284 -77.225464 -3.437644 -77.225464 -3.437644 " stroke="#231f20" stroke-width="6" stroke-opacity="1" stroke-miterlimit="10"/><path stroke-linecap="butt" transform="matrix(2.740184, 0, 0, -2.740523, 102.065331, 174.565184)" fill="none" stroke-linejoin="miter" d="M 0.000392548 -0.000446087 L 3.783784 -7.38812 C 3.783784 -7.38812 19.280863 -15.857648 40.364646 -7.38812 L 42.166532 -6.487289 L 44.869362 -0.000446087 " stroke="#231f20" stroke-width="6" stroke-opacity="1" stroke-miterlimit="10"/><path stroke-linecap="butt" transform="matrix(2.740184, 0, 0, -2.740523, 166.635051, 246.465452)" fill="none" stroke-linejoin="miter" d="M 0.00060857 0.000221879 L -7.145639 -17.125556 C -7.145639 -17.125556 -8.978888 -25.40836 0.00060857 -26.753906 C 0.00060857 -26.753906 7.635818 -26.193737 7.376369 -18.137566 Z M 0.00060857 0.000221879 " stroke="#231f20" stroke-width="6" stroke-opacity="1" stroke-miterlimit="10"/></g></svg>