<svg xmlns="http://www.w3.org/2000/svg" xmlns:xlink="http://www.w3.org/1999/xlink" width="500" zoomAndPan="magnify" viewBox="0 0 375 374.999991" height="500" preserveAspectRatio="xMidYMid meet" version="1.0"><defs><clipPath id="c466dee6ce"><path d="M 52.082031 37.5 L 322.832031 37.5 L 322.832031 337.5 L 52.082031 337.5 Z M 52.082031 37.5 " clip-rule="nonzero"/></clipPath><clipPath id="c5e1069daa"><path d="M 52.082031 37.5 L 322.832031 37.5 L 322.832031 332 L 52.082031 332 Z M 52.082031 37.5 " clip-rule="nonzero"/></clipPath><clipPath id="3e238d1bc4"><path d="M 52.082031 37.5 L 322.832031 37.5 L 322.832031 337.5 L 52.082031 337.5 Z M 52.082031 37.5 " clip-rule="nonzero"/></clipPath></defs><path fill="#eb5e28" d="M 169.488281 68.035156 L 165.089844 43.925781 L 192.589844 43.925781 L 187.636719 68.121094 Z M 169.488281 68.035156 " fill-opacity="1" fill-rule="nonzero"/><path fill="#eb5e28" d="M 274.636719 113.574219 L 277.289062 80.773438 L 296.539062 80.773438 L 321.835938 111.570312 L 291.921875 199.015625 L 269.035156 200.664062 L 263.535156 185.265625 L 284.703125 182.570312 L 291.921875 148.96875 L 292.6875 112.121094 Z M 274.636719 113.574219 " fill-opacity="1" fill-rule="nonzero"/><g clip-path="url(#c466dee6ce)"><path stroke-linecap="butt" transform="matrix(2.93014, 0, 0, -2.929917, 124.205504, 192.442252)" fill="none" stroke-linejoin="miter" d="M 0.000521104 0.000288716 C 0.000521104 0.000288716 18.092395 -9.761614 37.16545 0.562911 " stroke="#231f20" stroke-width="6" stroke-opacity="1" stroke-miterlimit="10"/><path stroke-linecap="butt" transform="matrix(2.93014, 0, 0, -2.929917, 236.037205, 101.655932)" fill="none" stroke-linejoin="miter" d="M 0.000633929 -0.00010863 L -2.237687 -32.541563 " stroke="#231f20" stroke-width="6" stroke-opacity="1" stroke-miterlimit="10"/><path stroke-linecap="butt" transform="matrix(2.93014, 0, 0, -2.929917, 195.402032, 206.746158)" fill="none" stroke-linejoin="miter" d="M 0.000106234 0.0000218005 L 1.386559 34.361334 " stroke="#231f20" stroke-width="6" stroke-opacity="1" stroke-miterlimit="10"/><path stroke-linecap="butt" transform="matrix(2.93014, 0, 0, -2.929917, 154.479693, 204.701003)" fill="none" stroke-linejoin="miter" d="M 0.000264832 0.000608826 L -2.949946 33.664643 " stroke="#231f20" stroke-width="6" stroke-opacity="1" stroke-miterlimit="10"/><path stroke-linecap="butt" transform="matrix(2.93014, 0, 0, -2.929917, 143.649897, 324.909706)" fill="none" stroke-linejoin="miter" d="M -0.000498258 -0.00015372 L 2.220492 33.266578 " stroke="#231f20" stroke-width="6" stroke-opacity="1" stroke-miterlimit="10"/><path stroke-linecap="butt" transform="matrix(2.93014, 0, 0, -2.929917, 190.388517, 329.65615)" fill="none" stroke-linejoin="miter" d="M -0.000613639 -0.0000342834 L -1.125773 33.790656 " stroke="#231f20" stroke-width="6" stroke-opacity="1" stroke-miterlimit="10"/><path stroke-linecap="butt" transform="matrix(2.93014, 0, 0, -2.929917, 229.47957, 317.195252)" fill="none" stroke-linejoin="miter" d="M 0.000306647 -0.000020659 L -3.920421 32.309452 " stroke="#231f20" stroke-width="6" stroke-opacity="1" stroke-miterlimit="10"/><path stroke-linecap="butt" transform="matrix(2.93014, 0, 0, -2.929917, 103.486493, 83.173941)" fill="none" stroke-linejoin="miter" d="M 0.000610328 -0.000628111 L 2.440234 -18.395189 L -9.197969 -4.317624 Z M 0.000610328 -0.000628111 " stroke="#231f20" stroke-width="6" stroke-opacity="1" stroke-miterlimit="10"/><path stroke-linecap="butt" transform="matrix(2.93014, 0, 0, -2.929917, 123.285407, 190.212643)" fill="none" stroke-linejoin="miter" d="M -0.0000855093 0.000581999 L -4.316752 18.207158 Z M -0.0000855093 0.000581999 " stroke="#231f20" stroke-width="6" stroke-opacity="1" stroke-miterlimit="10"/><path stroke-linecap="butt" transform="matrix(2.93014, 0, 0, -2.929917, 127.135631, 217.498932)" fill="none" stroke-linejoin="miter" d="M 0.000371381 -0.000364475 L -3.472426 -25.038406 L -3.472426 -30.856618 C -3.472426 -30.856618 18.020256 -49.252512 40.919387 -28.791446 L 37.166633 1.052886 C 14.640778 -10.771522 0.000371381 -0.000364475 0.000371381 -0.000364475 L -1.314092 9.313574 " stroke="#231f20" stroke-width="6" stroke-opacity="1" stroke-miterlimit="10"/><path stroke-linecap="butt" transform="matrix(2.93014, 0, 0, -2.929917, 231.088201, 222.532485)" fill="none" stroke-linejoin="miter" d="M 0.000560528 0.000421646 L 1.12572 9.947644 L 6.007633 34.349735 L 6.194271 44.862246 L 0.000560528 38.485412 L -12.481512 36.97753 L -30.78402 36.97753 L -44.591222 39.993294 " stroke="#231f20" stroke-width="6" stroke-opacity="1" stroke-miterlimit="10"/></g><g clip-path="url(#c5e1069daa)"><path stroke-linecap="butt" transform="matrix(2.93014, 0, 0, -2.929917, 103.486493, 82.971791)" fill="none" stroke-linejoin="miter" d="M 0.000610328 -0.000295196 L 9.197857 3.378107 L 22.525133 5.097973 L 32.755553 5.068642 L 52.369858 1.688906 " stroke="#231f20" stroke-width="6" stroke-opacity="1" stroke-miterlimit="10"/></g><path stroke-linecap="butt" transform="matrix(2.93014, 0, 0, -2.929917, 254.186501, 82.971791)" fill="none" stroke-linejoin="miter" d="M 0.000341073 -0.000295196 L 9.948139 -0.000295196 " stroke="#231f20" stroke-width="6" stroke-opacity="1" stroke-miterlimit="10"/><g clip-path="url(#3e238d1bc4)"><path stroke-linecap="butt" transform="matrix(2.93014, 0, 0, -2.929917, 254.007732, 113.495736)" fill="none" stroke-linejoin="miter" d="M 0.0000275345 -0.000122189 L 8.245421 1.150454 " stroke="#231f20" stroke-width="6" stroke-opacity="1" stroke-miterlimit="10"/></g></svg>