<svg xmlns="http://www.w3.org/2000/svg" xmlns:xlink="http://www.w3.org/1999/xlink" width="500" zoomAndPan="magnify" viewBox="0 0 375 374.999991" height="500" preserveAspectRatio="xMidYMid meet" version="1.0"><defs><clipPath id="8fff50eb75"><path d="M 58.125 37.5 L 316.875 37.5 L 316.875 337.5 L 58.125 337.5 Z M 58.125 37.5 " clip-rule="nonzero"/></clipPath><clipPath id="c79b7654e9"><path d="M 154 37.5 L 316.875 37.5 L 316.875 202 L 154 202 Z M 154 37.5 " clip-rule="nonzero"/></clipPath><clipPath id="fc1e86dd8d"><path d="M 89 37.5 L 284 37.5 L 284 151 L 89 151 Z M 89 37.5 " clip-rule="nonzero"/></clipPath><clipPath id="ae4ecdf0f9"><path d="M 58.125 37.5 L 316.875 37.5 L 316.875 337.5 L 58.125 337.5 Z M 58.125 37.5 " clip-rule="nonzero"/></clipPath><clipPath id="5020d9ea51"><path d="M 58.125 37.5 L 316.875 37.5 L 316.875 337.5 L 58.125 337.5 Z M 58.125 37.5 " clip-rule="nonzero"/></clipPath><clipPath id="681b7de376"><path d="M 58.125 37.5 L 316.875 37.5 L 316.875 337.5 L 58.125 337.5 Z M 58.125 37.5 " clip-rule="nonzero"/></clipPath></defs><g clip-path="url(#8fff50eb75)"><path stroke-linecap="butt" transform="matrix(2.637248, 0, 0, -2.637286, 100.993534, 111.690638)" fill="none" stroke-linejoin="miter" d="M -0.00051052 -0.000291202 C -0.00051052 -0.000291202 -28.310381 -4.257152 4.896284 -52.575638 L 2.979632 -71.521189 C 2.979632 -71.521189 25.542509 -94.935407 64.282878 -71.521189 L 59.387564 -37.88843 L 71.521424 -6.172296 L 73.648404 -5.533915 C 73.648404 -5.533915 81.312051 -2.553816 73.648404 -1.275572 L 55.342451 -0.000291202 L 55.555741 2.554714 C 55.555741 2.554714 57.472393 4.684626 55.130641 7.449957 L 45.765115 11.281724 C 45.765115 11.281724 33.419445 16.815348 20.222095 11.281724 L 10.216697 6.811576 C 10.216697 6.811576 7.449845 4.258051 9.578307 1.703046 Z M -0.00051052 -0.000291202 " stroke="#010101" stroke-width="6" stroke-opacity="1" stroke-miterlimit="10"/><path stroke-linecap="butt" transform="matrix(2.637248, 0, 0, -2.637286, 129.061813, 109.59925)" fill="none" stroke-linejoin="miter" d="M 0.000260565 0.000604164 C 0.000260565 0.000604164 19.05125 -10.441592 44.274333 1.064079 " stroke="#010101" stroke-width="6" stroke-opacity="1" stroke-miterlimit="10"/><path stroke-linecap="butt" transform="matrix(2.637248, 0, 0, -2.637286, 231.790477, 129.938019)" fill="none" stroke-linejoin="miter" d="M -0.00053646 0.00019697 L 22.706015 0.979245 L 8.939891 -31.50265 Z M -0.00053646 0.00019697 " stroke="#010101" stroke-width="6" stroke-opacity="1" stroke-miterlimit="10"/><path stroke-linecap="butt" transform="matrix(2.637248, 0, 0, -2.637286, 115.588063, 250.348606)" fill="none" stroke-linejoin="miter" d="M 0.000675416 0.000360109 L 0.53242 5.640627 C 0.53242 5.640627 -11.493313 25.117915 -12.026539 32.353395 C -12.026539 32.353395 -17.240307 52.291324 4.682698 49.028323 L 5.959479 49.028323 L 0.852356 6.705583 L 7.051112 52.474988 " stroke="#010101" stroke-width="6" stroke-opacity="1" stroke-miterlimit="10"/></g><path fill="#eb5e28" d="M 231.789062 129.9375 L 247.039062 110.601562 L 296.738281 115.339844 L 302.265625 117.074219 L 297.75 125.164062 L 282.03125 127.355469 L 237.9375 125.164062 " fill-opacity="1" fill-rule="nonzero"/><path fill="#eb5e28" d="M 250.875 127.351562 L 229.347656 127.351562 L 247.039062 110.597656 Z M 250.875 127.351562 " fill-opacity="1" fill-rule="nonzero"/><g clip-path="url(#c79b7654e9)"><path stroke-linecap="butt" transform="matrix(2.637248, 0, 0, -2.637286, 250.876337, 127.353479)" fill="none" stroke-linejoin="miter" d="M -0.000506902 0.000726632 L -8.163312 0.000726632 L -1.45503 6.353433 Z M -0.000506902 0.000726632 " stroke="#010101" stroke-width="2" stroke-opacity="1" stroke-miterlimit="10"/></g><path fill="#eb5e28" d="M 208.898438 61.976562 C 208.898438 69.417969 198.847656 75.449219 186.445312 75.449219 C 174.046875 75.449219 163.992188 69.417969 163.992188 61.976562 C 163.992188 54.535156 174.046875 48.503906 186.445312 48.503906 C 198.847656 48.503906 208.898438 54.535156 208.898438 61.976562 " fill-opacity="1" fill-rule="nonzero"/><g clip-path="url(#fc1e86dd8d)"><path stroke-linecap="butt" transform="matrix(2.637248, 0, 0, -2.637286, 208.89919, 61.975134)" fill="none" stroke-linejoin="miter" d="M -0.000285329 -0.000541833 C -0.000285329 -2.822157 -3.811372 -5.109072 -8.514131 -5.109072 C -13.21541 -5.109072 -17.027977 -2.822157 -17.027977 -0.000541833 C -17.027977 2.821073 -13.21541 5.107988 -8.514131 5.107988 C -3.811372 5.107988 -0.000285329 2.821073 -0.000285329 -0.000541833 Z M -0.000285329 -0.000541833 " stroke="#010101" stroke-width="2" stroke-opacity="1" stroke-miterlimit="10"/></g><path fill="#eb5e28" d="M 226.546875 116.800781 L 231.34375 129.347656 " fill-opacity="1" fill-rule="nonzero"/><g clip-path="url(#ae4ecdf0f9)"><path stroke-linecap="butt" transform="matrix(2.637248, 0, 0, -2.637286, 226.545047, 116.801683)" fill="none" stroke-linejoin="miter" d="M 0.000693062 0.000341821 L 1.819587 -4.757152 " stroke="#010101" stroke-width="6" stroke-opacity="1" stroke-miterlimit="10"/></g><path fill="#eb5e28" d="M 156.234375 120.265625 L 136.589844 318.199219 " fill-opacity="1" fill-rule="nonzero"/><g clip-path="url(#5020d9ea51)"><path stroke-linecap="butt" transform="matrix(2.637248, 0, 0, -2.637286, 156.23595, 120.267093)" fill="none" stroke-linejoin="miter" d="M -0.000597305 0.000556596 L -7.449472 -75.051433 " stroke="#010101" stroke-width="6" stroke-opacity="1" stroke-miterlimit="10"/></g><path fill="#eb5e28" d="M 200.582031 121.046875 L 231.34375 319.082031 " fill-opacity="1" fill-rule="nonzero"/><g clip-path="url(#681b7de376)"><path stroke-linecap="butt" transform="matrix(2.637248, 0, 0, -2.637286, 200.583918, 121.047736)" fill="none" stroke-linejoin="miter" d="M -0.000715321 0.000326491 L 11.663609 -75.090173 " stroke="#010101" stroke-width="6" stroke-opacity="1" stroke-miterlimit="10"/></g></svg>