<svg xmlns="http://www.w3.org/2000/svg" xmlns:xlink="http://www.w3.org/1999/xlink" width="500" zoomAndPan="magnify" viewBox="0 0 375 374.999991" height="500" preserveAspectRatio="xMidYMid meet" version="1.0"><defs><clipPath id="dfb6f57a84"><path d="M 37.5 41.203125 L 337.5 41.203125 L 337.5 333.703125 L 37.5 333.703125 Z M 37.5 41.203125 " clip-rule="nonzero"/></clipPath><clipPath id="3caabd86f7"><path d="M 37.5 41.203125 L 318 41.203125 L 318 333.703125 L 37.5 333.703125 Z M 37.5 41.203125 " clip-rule="nonzero"/></clipPath></defs><g clip-path="url(#dfb6f57a84)"><path stroke-linecap="butt" transform="matrix(2.60416, 0, 0, -2.605104, 138.981382, 216.201958)" fill="none" stroke-linejoin="miter" d="M -0.000350602 -0.000448042 C -0.000350602 -0.000448042 -4.086361 -0.49377 -4.473362 1.401547 C -4.473362 1.401547 -5.845865 2.9205 -0.729352 6.552193 C -0.729352 6.552193 11.107177 15.89233 30.449726 18.933235 C 30.449726 18.933235 34.832737 19.149157 32.876732 15.331532 L 67.582319 63.068344 C 67.582319 63.068344 72.15283 67.692679 70.055825 61.150535 C 70.055825 61.150535 69.745324 57.185962 65.380313 55.149695 C 65.380313 55.149695 64.744311 47.961284 59.270798 47.235545 C 59.270798 47.235545 59.183798 42.794144 53.507783 39.648277 L 33.572733 12.416581 L 36.976242 6.363261 C 36.976242 6.363261 36.853242 4.311999 35.048737 4.799324 L 52.32728 -17.119784 C 52.32728 -17.119784 54.431786 -20.208672 52.798282 -22.04851 C 52.798282 -22.04851 34.888237 -42.940488 9.428673 -39.449745 C 9.428673 -39.449745 7.040667 -38.071741 7.328668 -34.948365 Z M -0.000350602 -0.000448042 " stroke="#060808" stroke-width="6" stroke-opacity="1" stroke-miterlimit="10"/><path stroke-linecap="butt" transform="matrix(2.60416, 0, 0, -2.605104, 139.502223, 215.110474)" fill="none" stroke-linejoin="miter" d="M 0.000646547 0.000421816 C 0.000646547 0.000421816 5.577661 1.750292 11.441175 4.669741 C 11.441175 4.669741 20.436698 2.705448 24.206207 10.597107 L 31.965727 15.147968 " stroke="#060808" stroke-width="6" stroke-opacity="1" stroke-miterlimit="10"/><path stroke-linecap="butt" transform="matrix(2.60416, 0, 0, -2.605104, 228.710322, 195.379382)" fill="none" stroke-linejoin="miter" d="M 0.000236245 0.000182457 L -5.818278 3.687355 " stroke="#060808" stroke-width="6" stroke-opacity="1" stroke-miterlimit="10"/></g><g clip-path="url(#3caabd86f7)"><path stroke-linecap="butt" transform="matrix(2.60416, 0, 0, -2.605104, 96.866893, 246.939651)" fill="none" stroke-linejoin="miter" d="M 0.000113265 -0.000673779 L -15.676426 -9.931598 C -15.676426 -9.931598 -21.928442 -15.662535 -15.346425 -21.915284 C -15.346425 -21.915284 -8.770409 -25.836372 -4.361898 -19.087302 Z M 0.000113265 -0.000673779 " stroke="#231f20" stroke-width="6" stroke-opacity="1" stroke-miterlimit="10"/></g><path fill="#eb5e28" d="M 136.128906 207.859375 C 139.484375 209.117188 143.402344 211.335938 147.058594 210.566406 C 150.980469 209.738281 151.980469 207.0625 153.636719 203.835938 C 156.277344 198.664062 164.582031 199.816406 169.371094 198.820312 C 183.234375 195.945312 195.714844 187.929688 207.597656 180.601562 C 212.875 177.351562 210.992188 168.179688 204.316406 168.46875 C 197.738281 168.753906 191.027344 168.671875 184.488281 169.476562 C 178.503906 170.214844 172.550781 172.492188 169.753906 178.253906 C 167.132812 183.660156 167.964844 190.597656 173.214844 194.121094 C 178.800781 197.871094 186.179688 196.335938 191.785156 193.484375 C 199.253906 189.679688 192.671875 178.4375 185.214844 182.238281 C 184.042969 182.832031 182.90625 182.976562 181.660156 183.296875 C 180.5625 183.582031 180.226562 182.816406 181.171875 184.199219 C 181.621094 184.859375 180.941406 184.515625 181.347656 184.109375 C 181.917969 183.539062 181.839844 183.328125 182.894531 182.980469 C 185.652344 182.082031 188.613281 182.175781 191.480469 182.050781 C 195.753906 181.863281 200.035156 181.679688 204.316406 181.496094 C 203.21875 177.449219 202.125 173.398438 201.027344 169.355469 C 190.847656 175.632812 180.410156 182.480469 168.738281 185.59375 C 163.003906 187.121094 156.796875 186.632812 151.332031 189.078125 C 145.757812 191.574219 142.550781 196.1875 140.507812 201.761719 C 141.066406 200.804688 141.621094 199.847656 142.179688 198.886719 C 142.015625 199.089844 141.847656 199.296875 141.679688 199.5 C 142.636719 198.941406 143.59375 198.382812 144.550781 197.824219 C 144.234375 197.886719 143.917969 197.941406 143.597656 198.003906 L 147.058594 198.003906 C 144.523438 197.304688 142.054688 196.226562 139.589844 195.300781 C 136.300781 194.0625 132.457031 196.675781 131.582031 199.851562 C 130.582031 203.503906 132.824219 206.621094 136.128906 207.859375 " fill-opacity="1" fill-rule="nonzero"/></svg>