<svg xmlns="http://www.w3.org/2000/svg" xmlns:xlink="http://www.w3.org/1999/xlink" width="500" zoomAndPan="magnify" viewBox="0 0 375 374.999991" height="500" preserveAspectRatio="xMidYMid meet" version="1.0"><defs><clipPath id="81386f6fc9"><path d="M 37.5 45.292969 L 345.75 45.292969 L 345.75 337.792969 L 37.5 337.792969 Z M 37.5 45.292969 " clip-rule="nonzero"/></clipPath></defs><g clip-path="url(#81386f6fc9)"><path stroke-linecap="butt" transform="matrix(2.814939, 0, 0, -2.815334, 59.443916, 88.939213)" fill="none" stroke-linejoin="miter" d="M 0.000496175 0.000608581 C 3.063118 -7.568155 14.054972 -31.353913 14.054972 -31.353913 C 14.054972 -31.353913 6.125739 -31.535674 1.982111 -34.597867 C 1.982111 -34.597867 -4.324919 -39.824545 5.94534 -42.16663 C 5.94534 -42.16663 32.616651 -51.897105 64.691608 -43.067112 C 64.691608 -43.067112 78.206274 -38.381555 64.691608 -33.157651 L 58.924388 -31.353913 L 62.167408 -26.308996 L 75.322664 0.000608581 C 75.322664 0.000608581 79.646692 3.423549 75.322664 5.586647 C 75.322664 5.586647 52.617358 13.875519 0.000496175 6.847877 C 0.000496175 6.847877 -4.324919 4.145044 0.000496175 0.000608581 Z M 0.000496175 0.000608581 " stroke="#231f20" stroke-width="6" stroke-opacity="1" stroke-miterlimit="10"/><path stroke-linecap="butt" transform="matrix(2.814939, 0, 0, -2.815334, 276.827624, 79.262925)" fill="none" stroke-linejoin="miter" d="M 0.000178007 0.000428527 C 0.000178007 0.000428527 15.035748 -3.436387 16.838351 -6.00047 C 16.838351 -6.00047 21.523176 -14.249104 7.288301 -23.079097 C 7.288301 -23.079097 -1.000343 -29.745991 -15.057595 -29.745991 L -12.895581 -25.421181 C -12.895581 -25.421181 0.800872 -26.142677 12.332537 -12.086006 C 12.332537 -12.086006 13.234532 -7.722346 11.072519 -6.860714 L -1.902338 -3.436387 C -47.49335 -14.970599 -77.224507 -3.436387 -77.224507 -3.436387 " stroke="#231f20" stroke-width="6" stroke-opacity="1" stroke-miterlimit="10"/><path stroke-linecap="butt" transform="matrix(2.814939, 0, 0, -2.815334, 225.314229, 177.21116)" fill="none" stroke-linejoin="miter" d="M -0.000614189 0.0000788763 L -2.702437 -6.486442 L -4.505041 -7.388311 C -25.588143 -15.857556 -41.084424 -7.388311 -41.084424 -7.388311 L -44.870029 0.0000788763 " stroke="#231f20" stroke-width="6" stroke-opacity="1" stroke-miterlimit="10"/><path stroke-linecap="butt" transform="matrix(2.814939, 0, 0, -2.815334, 70.844443, 115.279329)" fill="none" stroke-linejoin="miter" d="M -0.000246203 -0.000682253 C -0.000246203 -0.000682253 24.027524 -15.368532 66.926426 -0.000682253 " stroke="#231f20" stroke-width="6" stroke-opacity="1" stroke-miterlimit="10"/><path stroke-linecap="butt" transform="matrix(2.814939, 0, 0, -2.815334, 84.204141, 144.899522)" fill="none" stroke-linejoin="miter" d="M -0.000360779 0.000385384 C -0.000360779 0.000385384 21.522638 -11.911225 57.252758 0.000385384 " stroke="#231f20" stroke-width="6" stroke-opacity="1" stroke-miterlimit="10"/><path stroke-linecap="butt" transform="matrix(2.814939, 0, 0, -2.815334, 96.271786, 171.27913)" fill="none" stroke-linejoin="miter" d="M 0.000586628 0.000634597 C 0.000586628 0.000634597 19.522543 -9.935188 47.441383 0.382195 " stroke="#231f20" stroke-width="6" stroke-opacity="1" stroke-miterlimit="10"/><path stroke-linecap="butt" transform="matrix(2.814939, 0, 0, -2.815334, 162.045668, 248.714866)" fill="none" stroke-linejoin="miter" d="M 0.000428692 0.0000079272 L -7.14615 -17.125793 C -7.14615 -17.125793 -8.979283 -25.407727 0.000428692 -26.753593 C 0.000428692 -26.753593 7.635473 -26.194435 7.374588 -18.137274 Z M 0.000428692 0.0000079272 " stroke="#231f20" stroke-width="6" stroke-opacity="1" stroke-miterlimit="10"/></g></svg>